<svg xmlns="http://www.w3.org/2000/svg" xmlns:svg="http://www.w3.org/2000/svg" xmlns:xlink="http://www.w3.org/1999/xlink" version="1.0" height="450.00023553420135pt" width="949.2659896829679pt" viewBox="395.73401 76.9997643537705 957.2659896829679 456.00023553420135" ><defs><style type="text/css">
            @font-face {
                font-family: 'noto_regular';
                src: url('https://app.creately.com/d/assets/fonts/noto/noto-regular.woff') format('woff'),
                     url('https://app.creately.com/d/assets/fonts/noto/noto-regular.woff2') format('woff2');
                font-weight: normal;
                font-style: normal;
            }
        p {
            margin: 0;
        }
        </style></defs><defs>
        <style>
            span{ display: inline-block; }
            
        </style>
        
        </defs><g id="KE7tWPKd7Ca"><g transform="translate(400.73401 79.9997643537705)"><rect x="0" y="0" width="949.265989682968" height="450.0002355342013" fill="white" stroke="#1a1a1a" stroke-width="2" stroke-linecap="round" stroke-linejoin="round" stroke-dasharray="0 0"/></g><g transform="translate(410.734192341484, 286.9998821208712) rotate(0, 464.6328125, 18)" width="929.265625" height="36"><text text-decoration="none" x="464.6328125" fill="#4b4b4b" font-size="10pt" font-family="noto_regular"  y="14"></text><text text-decoration="none" x="464.6328125" fill="#4b4b4b" font-size="10pt" font-family="noto_regular"  y="32"></text><text text-decoration="none" x="464.6328125" fill="#4b4b4b" font-size="10pt" font-family="noto_regular"  y="50"></text></g></g><g id="uAQnm6bTkj4"><g transform="translate(470 170)"><rect x="0" y="0" width="60.034102346423644" height="60.034102346423644" fill="rgba(255,255,255,0.01)" stroke="rgba(255,255,255,0.01)"  stroke-dasharray="0 0"/><path d="M 0,0 L 60.034102346423644,0 L 60.034102346423644,60.034102346423644 L 0,60.034102346423644 L 0,0 Z" fill="rgb(59, 72, 204)" stroke="rgba(255,255,255,0.01)"  stroke-dasharray="0 0"/><path d="M 30.41727852218798,10.405911073380098 C 22.41273154266483,10.405911073380098 16.32927583822723,12.967366106827507 16.32927583822723,16.409321308022463 L 16.32927583822723,46.02614513225813 C 16.32927583822723,49.46810033345308 22.41273154266483,52.029555366900496 30.41727852218798,52.029555366900496 C 38.42182550171113,52.029555366900496 44.50528120614873,49.46810033345308 44.50528120614873,46.02614513225813 L 44.50528120614873,16.409321308022463 C 44.50528120614873,12.967366106827507 38.42182550171113,10.405911073380098 30.41727852218798,10.405911073380098 Z M 30.41727852218798,12.00682046928473 C 37.78146174334928,12.00682046928473 42.9043718102441,14.328139093346442 42.9043718102441,16.409321308022463 C 42.9043718102441,18.490503522698486 37.78146174334928,20.811822146760196 30.41727852218798,20.811822146760196 C 23.053095301026676,20.811822146760196 17.930185234131862,18.490503522698486 17.930185234131862,16.409321308022463 C 17.930185234131862,14.328139093346442 23.05309530102668,12.00682046928473 30.41727852218798,12.00682046928473 Z M 30.41727852218798,50.42864597099586 C 23.05309530102668,50.42864597099586 17.930185234131862,48.10732734693415 17.930185234131862,46.02614513225813 L 17.930185234131862,39.78259848823007 C 20.251503858193573,41.70368976331563 24.814095636521774,42.9043718102441 30.41727852218798,42.9043718102441 C 36.020461407854185,42.9043718102441 40.58305318618239,41.70368976331563 42.9043718102441,39.78259848823007 L 42.9043718102441,46.02614513225813 C 42.9043718102441,48.10732734693415 37.78146174334928,50.42864597099586 30.41727852218798,50.42864597099586 Z M 30.41727852218798,41.30346241433947 C 23.05309530102668,41.30346241433947 17.930185234131862,38.98214379027775 17.930185234131862,36.900961575601734 L 17.930185234131862,29.616823824235667 C 20.251503858193573,31.53791509932122 24.814095636521774,32.738597146249695 30.41727852218798,32.738597146249695 C 36.020461407854185,32.738597146249695 40.58305318618239,31.53791509932122 42.9043718102441,29.616823824235667 L 42.9043718102441,36.98100704539697 C 42.9043718102441,39.06218926007299 37.78146174334928,41.30346241433947 30.41727852218798,41.30346241433947 Z M 30.41727852218798,31.13768775034507 C 23.05309530102668,31.13768775034507 17.930185234131862,28.816369126283355 17.930185234131862,26.735186911607336 L 17.930185234131862,19.210912750855567 C 20.251503858193573,21.13200402594112 24.814095636521774,22.41273154266483 30.41727852218798,22.41273154266483 C 36.020461407854185,22.41273154266483 40.58305318618239,21.13200402594112 42.9043718102441,19.210912750855567 L 42.9043718102441,26.73518691160733 C 42.9043718102441,28.816369126283348 37.78146174334928,31.137687750345062 30.41727852218798,31.137687750345062 Z" fill="rgb(255, 255, 255)" stroke="rgba(255,255,255,0.01)"  stroke-dasharray="0 0"/></g><g transform="translate(470.4670511732118, 240.03410234642365) rotate(0, 29.55, 0)" width="59.1" height="36.01"><text text-decoration="none" x="13.175" fill="rgb(26, 26, 26)" font-size="10pt" font-family="noto_regular"  y="14">PPMI&#160;</text><text text-decoration="none" x="0.0031250000000007105" fill="rgb(26, 26, 26)" font-size="10pt" font-family="noto_regular"  y="32">Database</text><text text-decoration="none" x="59.096875" fill="#4b4b4b" font-size="10pt" font-family="noto_regular"  y="32"></text></g></g><g id="BGFoHOU9mxW"><g transform="translate(431.77660337013276 339.99999999999994)"><path d="M 20,40 L 20,40 L 20,40 A 20 20 0 0 1 0 20.000000000000004 L 0,20 L 0,20.000000000000004 A 20 20 0 0 1 20 0 L 149.00972662986726,0 L 149.00972662986726,0 L 149.00972662986726,0 A 20 20 0 0 1 169.00972662986726 20 L 169.00972662986726,20 L 169.00972662986726,20 A 20 20 0 0 1 149.00972662986726 40 L 20,40 Z" fill="rgb(255,255,255)" stroke="#f77474" stroke-width="2" stroke-linecap="round" stroke-linejoin="round" stroke-dasharray="0 0"/></g><g transform="translate(451.0514666850663, 350.99999999999994) rotate(0, 65.23, 9)" width="130.46" height="18"><text text-decoration="none" x="0.003437500000003979" fill="rgb(26, 26, 26)" font-size="10pt" font-family="noto_regular"  y="14">Download&#160;</text><text text-decoration="none" x="67.1753125" fill="rgb(26, 26, 26)" font-size="10pt" font-family="noto_regular"  y="14">study&#160;</text><text text-decoration="none" x="105.0815625" fill="rgb(26, 26, 26)" font-size="10pt" font-family="noto_regular"  y="14">files</text><text text-decoration="none" x="130.45656250000002" fill="#4b4b4b" font-size="10pt" font-family="noto_regular"  y="14"></text></g></g><g id="LZwfNSwK4Z3"><g transform="translate(641.1873318029305 150)"><rect x="0" y="0" width="169.0013281970695" height="60" fill="rgb(255,255,255)" stroke="#24afaf" stroke-width="2" stroke-linecap="round" stroke-linejoin="round" stroke-dasharray="0 0"/></g><g transform="translate(657.7879959014653, 161.995) rotate(0, 67.9, 18.005)" width="135.8" height="36.01"><text text-decoration="none" x="0.0015625000000056843" fill="rgb(26, 26, 26)" font-size="10pt" font-family="noto_regular"  y="14">Run&#160;</text><text text-decoration="none" x="28.251562500000006" fill="rgb(26, 26, 26)" font-size="10pt" font-family="noto_regular"  y="14">&#x201C;Create&#160;</text><text text-decoration="none" x="79.6421875" fill="rgb(26, 26, 26)" font-size="10pt" font-family="noto_regular"  y="14">Cohorts&#x201D;&#160;</text><text text-decoration="none" x="39.025000000000006" fill="rgb(26, 26, 26)" font-size="10pt" font-family="noto_regular"  y="32">workflow</text><text text-decoration="none" x="96.775" fill="#4b4b4b" font-size="10pt" font-family="noto_regular"  y="32"></text></g></g><g id="Kj7uZdyOWdQ"><g><path d="M 601,360 L 610.9868309014653,360 Q 620.9868309014653,359.99999999999994 620.9882941346201,350.00000010705253 L 621,270 L 620.9882941346201,189.99999989294744 Q 620.9868309014653,180 630.9868309014653,180 L 641,180" fill="none" stroke="#1a1a1a" stroke-width="2" stroke-linecap="round" stroke-linejoin="round" stroke-dasharray="0 0"/><path d="M 641,180 L 632.304347826087,174.25 L 632.304347826087,185.75 Z" fill="rgb(26,26,26)" stroke="#1a1a1a" stroke-width="2" stroke-linecap="round" stroke-linejoin="round"/></g></g><g id="yn012V5oYgF"><g><path d="M 516,340 L 516.1771402334789,323.02150695797826 Q 516.263538143079,314.7404616066159 508,313 Q 500.01577841406566,311.00503085730685 500.01074107864946,303.0220531640767 L 500,286" fill="none" stroke="#1a1a1a" stroke-width="2" stroke-linecap="round" stroke-linejoin="round" stroke-dasharray="0 0"/><path d="M 500,286 L 494.25,294.69565217391306 L 505.75,294.69565217391306 Z" fill="rgb(26,26,26)" stroke="#1a1a1a" stroke-width="2" stroke-linecap="round" stroke-linejoin="round"/></g></g><g id="6kNBrnaAR9o"><g transform="translate(641.1872811077026 250)"><rect x="0" y="0" width="169.0013788922974" height="60" fill="rgb(255,255,255)" stroke="#24afaf" stroke-width="2" stroke-linecap="round" stroke-linejoin="round" stroke-dasharray="0 0"/></g><g transform="translate(660.1379705538513, 261.995) rotate(0, 65.55, 18.005)" width="131.1" height="36.01"><text text-decoration="none" x="24.096874999999997" fill="rgb(26, 26, 26)" font-size="10pt" font-family="noto_regular"  y="14">Run&#160;</text><text text-decoration="none" x="52.346875" fill="rgb(26, 26, 26)" font-size="10pt" font-family="noto_regular"  y="14">&#x201C;Feature&#160;</text><text text-decoration="none" x="0.003124999999997158" fill="rgb(26, 26, 26)" font-size="10pt" font-family="noto_regular"  y="32">Extraction&#x201D;&#160;</text><text text-decoration="none" x="73.346875" fill="rgb(26, 26, 26)" font-size="10pt" font-family="noto_regular"  y="32">workflow</text><text text-decoration="none" x="131.096875" fill="#4b4b4b" font-size="10pt" font-family="noto_regular"  y="32"></text></g></g><g id="XfrCwWPnXGl"><g><path d="M 726,210 L 725.8439789713686,220.0012166099118 Q 725.8391122356575,220.3131827497187 726,230 Q 725.8390987665294,239.6867917142686 725.8439662929362,239.99878319243834 L 726,250" fill="none" stroke="#1a1a1a" stroke-width="2" stroke-linecap="round" stroke-linejoin="round" stroke-dasharray="0 0"/><path d="M 726,250 L 731.75,241.30434782608697 L 720.25,241.30434782608697 Z" fill="rgb(26,26,26)" stroke="#1a1a1a" stroke-width="2" stroke-linecap="round" stroke-linejoin="round"/></g></g><g id="ct5zjYzoXlO"><g transform="translate(640.2622351445009 350)"><rect x="0" y="0" width="170.85146971099803" height="60" fill="rgb(255,255,255)" stroke="#24afaf" stroke-width="2" stroke-linecap="round" stroke-linejoin="round" stroke-dasharray="0 0"/></g><g transform="translate(668.69297, 361.995) rotate(0, 56.995, 18.005)" width="113.99" height="36.01"><text text-decoration="none" x="0.002812499999997442" fill="rgb(26, 26, 26)" font-size="10pt" font-family="noto_regular"  y="14">Run&#160;</text><text text-decoration="none" x="28.252812499999997" fill="rgb(26, 26, 26)" font-size="10pt" font-family="noto_regular"  y="14">&#x201C;ML&#160;</text><text text-decoration="none" x="57.4715625" fill="rgb(26, 26, 26)" font-size="10pt" font-family="noto_regular"  y="14">Pipeline&#x201D;&#160;</text><text text-decoration="none" x="28.119999999999997" fill="rgb(26, 26, 26)" font-size="10pt" font-family="noto_regular"  y="32">workflow</text><text text-decoration="none" x="85.87" fill="#4b4b4b" font-size="10pt" font-family="noto_regular"  y="32"></text></g></g><g id="54w3CC6PbuT"><g><path d="M 726,310 L 725.8439662929362,320.00121680756166 Q 725.8390987665294,320.31320828573143 726,330 Q 725.839098472225,339.68679115630056 725.8439660159095,339.9987831881195 L 726,350" fill="none" stroke="#1a1a1a" stroke-width="2" stroke-linecap="round" stroke-linejoin="round" stroke-dasharray="0 0"/><path d="M 726,350 L 731.75,341.30434782608694 L 720.25,341.30434782608694 Z" fill="rgb(26,26,26)" stroke="#1a1a1a" stroke-width="2" stroke-linecap="round" stroke-linejoin="round"/></g></g><g id="7s5JZBIFshR"><g transform="translate(869.9999835517245 240)"><rect x="0" y="0" width="80.10463289655078" height="60.415152060407785" fill="rgb(220,243,237)" stroke="#68a299" stroke-width="2" stroke-linecap="round" stroke-linejoin="round" stroke-dasharray="0 0"/></g><g transform="translate(896.3372999999999, 261.2075760302039) rotate(0, 13.715, 9)" width="27.43" height="18"><text text-decoration="none" x="0.004062499999999858" fill="rgb(0, 0, 0)" font-weight="bold" font-size="10pt" font-family="noto_regular"  y="14">SVM</text><text text-decoration="none" x="27.4259375" fill="#4b4b4b" font-size="10pt" font-family="noto_regular"  y="14"></text></g></g><g id="g2ne6ZixmgU"><g transform="translate(980 240)"><rect x="0" y="0" width="80.10463289655078" height="60.415152060407785" fill="rgb(220,243,237)" stroke="#68a299" stroke-width="2" stroke-linecap="round" stroke-linejoin="round" stroke-dasharray="0 0"/></g><g transform="translate(1011.4723164482754, 261.2075760302039) rotate(0, 8.58, 9)" width="17.16" height="18"><text text-decoration="none" x="0.001875000000000071" fill="#111729" font-weight="bold" font-size="10pt" font-family="noto_regular"  y="14">DT</text><text text-decoration="none" x="17.158125" fill="#4b4b4b" font-size="10pt" font-family="noto_regular"  y="14"></text></g></g><g id="GgUGfvtbWjr"><g transform="translate(1090 240)"><rect x="0" y="0" width="80.10463289655078" height="60.415152060407785" fill="rgb(220,243,237)" stroke="#68a299" stroke-width="2" stroke-linecap="round" stroke-linejoin="round" stroke-dasharray="0 0"/></g><g transform="translate(1116.3523164482754, 261.2075760302039) rotate(0, 13.7, 9)" width="27.4" height="18"><text text-decoration="none" x="0.0046874999999992895" fill="#355351" font-weight="bold" font-size="10pt" font-family="noto_regular"  y="14">kNN</text><text text-decoration="none" x="27.3953125" fill="#4b4b4b" font-size="10pt" font-family="noto_regular"  y="14"></text></g></g><g id="gnyvE7ZJTBM"><g transform="translate(1200 240)"><rect x="0" y="0" width="80.10463289655078" height="60.415152060407785" fill="rgb(220,243,237)" stroke="#68a299" stroke-width="2" stroke-linecap="round" stroke-linejoin="round" stroke-dasharray="0 0"/></g><g transform="translate(1225.8023164482754, 261.2075760302039) rotate(0, 14.25, 9)" width="28.5" height="18"><text text-decoration="none" x="0" fill="#355351" font-weight="bold" font-size="10pt" font-family="noto_regular"  y="14">GNB</text><text text-decoration="none" x="28.5" fill="#4b4b4b" font-size="10pt" font-family="noto_regular"  y="14"></text></g></g><g id="zliYDOSHWD6"><g><path d="M 1080,210 L 1080.0179150824035,215.20763520307764 Q 1080.0523164482754,225.20757603020388 1070.0525549837428,225.1385061203563 L 1050,225 L 1030.0520762431393,225.1382648116041 Q 1020.0523164482754,225.20757603020388 1020.0169496137453,235.2075134893591 L 1020,240" fill="none" stroke="#1a1a1a" stroke-width="2" stroke-linecap="round" stroke-linejoin="round" stroke-dasharray="0 0"/><path d="M 1020,240 L 1025.75,231.30434782608697 L 1014.25,231.30434782608697 Z" fill="rgb(26,26,26)" stroke="#1a1a1a" stroke-width="2" stroke-linecap="round" stroke-linejoin="round"/></g></g><g id="ddIG7G9k9YF"><g><path d="M 1080,210 L 1080.0179150824035,215.20763520307764 Q 1080.0523164482754,225.20757603020388 1090.0519703165508,225.12437437947403 L 1105,225 L 1120.0526596948957,225.12472185356302 Q 1130.0523164482754,225.20757603020388 1130.0169496137453,235.2075134893591 L 1130,240" fill="none" stroke="#1a1a1a" stroke-width="2" stroke-linecap="round" stroke-linejoin="round" stroke-dasharray="0 0"/><path d="M 1130,240 L 1135.75,231.30434782608697 L 1124.25,231.30434782608697 Z" fill="rgb(26,26,26)" stroke="#1a1a1a" stroke-width="2" stroke-linecap="round" stroke-linejoin="round"/></g></g><g id="tu2zd1RPxKO"><g><path d="M 1080,210 L 1080.0179150824035,215.20763520307764 Q 1080.0523164482754,225.20757603020388 1090.052282742025,225.18161213465103 L 1160,225 L 1230.052350066472,225.18164607069986 Q 1240.0523164482754,225.20757603020388 1240.0169496137453,235.2075134893591 L 1240,240" fill="none" stroke="#1a1a1a" stroke-width="2" stroke-linecap="round" stroke-linejoin="round" stroke-dasharray="0 0"/><path d="M 1240,240 L 1245.75,231.30434782608697 L 1234.25,231.30434782608697 Z" fill="rgb(26,26,26)" stroke="#1a1a1a" stroke-width="2" stroke-linecap="round" stroke-linejoin="round"/></g></g><g id="NuiT3HSzA7T"><g transform="translate(1040 150)"><rect x="0" y="0" width="80.10463289655078" height="60.415152060407785" fill="white" stroke="#1a1a1a" stroke-width="2" stroke-linecap="round" stroke-linejoin="round" stroke-dasharray="0 0"/></g><g transform="translate(1057.0123164482754, 162.2025760302039) rotate(0, 23.04, 18.005)" width="46.08" height="36.01"><text text-decoration="none" x="13.5009375" fill="#4b4b4b" font-size="10pt" font-family="noto_regular"  y="14">ML&#160;</text><text text-decoration="none" x="0.0009374999999991473" fill="#4b4b4b" font-size="10pt" font-family="noto_regular"  y="32">models</text><text text-decoration="none" x="46.0790625" fill="#4b4b4b" font-size="10pt" font-family="noto_regular"  y="32"></text></g></g><g id="l7WvGfVBNPA"><g><path d="M 811,380 L 821.1137048554989,380 Q 831.1137048554989,380 831.1046084708223,370.0000041372116 L 831,255 L 831.1046084708223,139.99999586278844 Q 831.1137048554989,130 841.1137048554989,130 L 956,130 L 1070.0523164482754,130 Q 1080.0523164482754,130 1080.0261583136314,139.99996578754107 L 1080,150" fill="none" stroke="#1a1a1a" stroke-width="2" stroke-linecap="round" stroke-linejoin="round" stroke-dasharray="0 0"/><path d="M 1080,150 L 1085.75,141.30434782608697 L 1074.25,141.30434782608697 Z" fill="rgb(26,26,26)" stroke="#1a1a1a" stroke-width="2" stroke-linecap="round" stroke-linejoin="round"/></g></g><g id="2tRqFonZdFI"><g><path d="M 1080,210 L 1080.0179150824035,215.20763520307764 Q 1080.0523164482754,225.20757603020388 1070.0523462300227,225.18317041485153 L 995,225 L 920.052270144853,225.1831403585515 Q 910.0523,225.20757603020388 910.0169442846528,235.20751352867816 L 910,240" fill="none" stroke="#1a1a1a" stroke-width="2" stroke-linecap="round" stroke-linejoin="round" stroke-dasharray="0 0"/><path d="M 910,240 L 915.75,231.30434782608697 L 904.25,231.30434782608697 Z" fill="rgb(26,26,26)" stroke="#1a1a1a" stroke-width="2" stroke-linecap="round" stroke-linejoin="round"/></g></g><g id="aVkLB4sKeJs"><g transform="translate(920.0364381828069 430.00000000000006)"><rect x="0" y="0" width="60.136363634385965" height="60.415152060407785" fill="rgb(232,241,248)" stroke="#699ec5" stroke-width="2" stroke-linecap="round" stroke-linejoin="round" stroke-dasharray="0 0"/></g><g transform="translate(942.9696199999998, 451.20757603020394) rotate(0, 7.135, 9)" width="14.27" height="18"><text text-decoration="none" x="0.002187499999999787" fill="#38566e" font-weight="bold" font-size="10pt" font-family="noto_regular"  y="14">F5</text><text text-decoration="none" x="14.2678125" fill="#4b4b4b" font-size="10pt" font-family="noto_regular"  y="14"></text></g></g><g id="0avcRJ1EyP8"><g transform="translate(1010 430.00000000000006)"><rect x="0" y="0" width="60.404327824255695" height="60.415152060407785" fill="rgb(232,241,248)" stroke="#699ec5" stroke-width="2" stroke-linecap="round" stroke-linejoin="round" stroke-dasharray="0 0"/></g><g transform="translate(1033.0671639121279, 451.20757603020394) rotate(0, 7.135, 9)" width="14.27" height="18"><text text-decoration="none" x="0.002187499999999787" fill="#38566e" font-weight="bold" font-size="10pt" font-family="noto_regular"  y="14">F6</text><text text-decoration="none" x="14.2678125" fill="#4b4b4b" font-size="10pt" font-family="noto_regular"  y="14"></text></g></g><g id="niZgra4Z82V"><g transform="translate(1100 430.00000000000006)"><rect x="0" y="0" width="60.00004407347353" height="60.415152060407785" fill="rgb(232,241,248)" stroke="#699ec5" stroke-width="2" stroke-linecap="round" stroke-linejoin="round" stroke-dasharray="0 0"/></g><g transform="translate(1122.8650220367367, 451.20757603020394) rotate(0, 7.135, 9)" width="14.27" height="18"><text text-decoration="none" x="0.002187499999999787" fill="#38566e" font-weight="bold" font-size="10pt" font-family="noto_regular"  y="14">F8</text><text text-decoration="none" x="14.2678125" fill="#4b4b4b" font-size="10pt" font-family="noto_regular"  y="14"></text></g></g><g id="ShEMfa3bpnT"><g transform="translate(1190 430.00000000000006)"><rect x="0" y="0" width="60.0000440733795" height="60.415152060407785" fill="rgb(232,241,248)" stroke="#699ec5" stroke-width="2" stroke-linecap="round" stroke-linejoin="round" stroke-dasharray="0 0"/></g><g transform="translate(1212.8650220366897, 451.20757603020394) rotate(0, 7.135, 9)" width="14.27" height="18"><text text-decoration="none" x="0.002187499999999787" fill="#38566e" font-weight="bold" font-size="10pt" font-family="noto_regular"  y="14">F9</text><text text-decoration="none" x="14.2678125" fill="#4b4b4b" font-size="10pt" font-family="noto_regular"  y="14"></text></g></g><g id="heTJ9E4c1rB"><g><path d="M 1080,400 L 1080.0179150824035,405.20763520307764 Q 1080.0523164482754,415.2075760302039 1070.0528521960887,415.10406434371174 L 1060,415 L 1050.2016143039896,415.1027339551735 Q 1040.2021639121278,415.2075760302039 1040.0655094766037,425.2066422648706 L 1040,430" fill="none" stroke="#1a1a1a" stroke-width="2" stroke-linecap="round" stroke-linejoin="round" stroke-dasharray="0 0"/><path d="M 1040,430 L 1045.75,421.30434782608694 L 1034.25,421.30434782608694 Z" fill="rgb(26,26,26)" stroke="#1a1a1a" stroke-width="2" stroke-linecap="round" stroke-linejoin="round"/></g></g><g id="h1qR8syAFSz"><g><path d="M 1080,400 L 1080.0179150824035,405.20763520307764 Q 1080.0523164482754,415.2075760302039 1090.0519703165508,415.12437437947403 L 1105,415 L 1120.0003667207736,415.12454855323426 Q 1130.0000220367367,415.2075760302039 1130.0000071394238,425.2075760301928 L 1130,430" fill="none" stroke="#1a1a1a" stroke-width="2" stroke-linecap="round" stroke-linejoin="round" stroke-dasharray="0 0"/><path d="M 1130,430 L 1135.75,421.30434782608694 L 1124.25,421.30434782608694 Z" fill="rgb(26,26,26)" stroke="#1a1a1a" stroke-width="2" stroke-linecap="round" stroke-linejoin="round"/></g></g><g id="qEfifEDZa8U"><g><path d="M 1080,400 L 1080.0179150824035,405.20763520307764 Q 1080.0523164482754,415.2075760302039 1090.052272415621,415.17790026316607 L 1150,415 L 1210.0000660035234,415.1779224513166 Q 1220.0000220366896,415.2075760302039 1220.0000071394086,425.2075760301928 L 1220,430" fill="none" stroke="#1a1a1a" stroke-width="2" stroke-linecap="round" stroke-linejoin="round" stroke-dasharray="0 0"/><path d="M 1220,430 L 1225.75,421.30434782608694 L 1214.25,421.30434782608694 Z" fill="rgb(26,26,26)" stroke="#1a1a1a" stroke-width="2" stroke-linecap="round" stroke-linejoin="round"/></g></g><g id="Ve7jsF1mJVY"><g transform="translate(1040 340)"><rect x="0" y="0" width="80.10463289655078" height="60.415152060407785" fill="white" stroke="#1a1a1a" stroke-width="2" stroke-linecap="round" stroke-linejoin="round" stroke-dasharray="0 0"/></g><g transform="translate(1052.1423164482753, 352.2025760302039) rotate(0, 27.91, 18.005)" width="55.82" height="36.01"><text text-decoration="none" x="3.91" fill="#4b4b4b" font-size="10pt" font-family="noto_regular"  y="14">Feature&#160;</text><text text-decoration="none" x="0.003750000000000142" fill="#4b4b4b" font-size="10pt" font-family="noto_regular"  y="32">selection</text><text text-decoration="none" x="55.81625" fill="#4b4b4b" font-size="10pt" font-family="noto_regular"  y="32"></text></g></g><g id="9EjITBOWzw5"><g><path d="M 1080,400 L 1080.0179150824035,405.20763520307764 Q 1080.0523164482754,415.2075760302039 1070.0523673573919,415.17566710139306 L 1015,415 L 960.1045688443605,415.17558993684327 Q 950.1046199999998,415.2075760302039 950.0338963757156,425.2073259355249 L 950,430" fill="none" stroke="#1a1a1a" stroke-width="2" stroke-linecap="round" stroke-linejoin="round" stroke-dasharray="0 0"/><path d="M 950,430 L 955.75,421.30434782608694 L 944.25,421.30434782608694 Z" fill="rgb(26,26,26)" stroke="#1a1a1a" stroke-width="2" stroke-linecap="round" stroke-linejoin="round"/></g></g><g id="38gssSMFNsM"><g><path d="M 811,380 L 821.1137048554989,380 Q 831.1137048554989,380 831.0758035092309,370.0000718258604 L 831,350 L 831.0758035092309,329.9999281741396 Q 831.1137048554989,320 841.1137048554989,320 L 956,320 L 1070.0523164482754,320 Q 1080.0523164482754,320 1080.0261583136314,329.9999657875411 L 1080,340" fill="none" stroke="#1a1a1a" stroke-width="2" stroke-linecap="round" stroke-linejoin="round" stroke-dasharray="0 0"/><path d="M 1080,340 L 1085.75,331.30434782608694 L 1074.25,331.30434782608694 Z" fill="rgb(26,26,26)" stroke="#1a1a1a" stroke-width="2" stroke-linecap="round" stroke-linejoin="round"/></g></g></svg>