<svg xmlns="http://www.w3.org/2000/svg" xmlns:svg="http://www.w3.org/2000/svg" xmlns:xlink="http://www.w3.org/1999/xlink" version="1.0" height="765.4428748731025pt" width="778.2972176417372pt" viewBox="1524.9999999999998 446.99999999999955 786.2972176417372 771.4428748731025" ><defs><style type="text/css">
            @font-face {
                font-family: 'noto_regular';
                src: url('https://app.creately.com/d/assets/fonts/noto/noto-regular.woff') format('woff'),
                     url('https://app.creately.com/d/assets/fonts/noto/noto-regular.woff2') format('woff2');
                font-weight: normal;
                font-style: normal;
            }
        p {
            margin: 0;
        }
        </style></defs><defs>
        <style>
            span{ display: inline-block; }
            
        </style>
        
        </defs><g id="5xSa9AlMWI3"><g transform="translate(1529.9999999999998 449.99999999999955)"><rect x="0" y="0" width="778.2972176417371" height="765.4428748731024" fill="white" stroke="#1a1a1a" stroke-width="2" stroke-linecap="round" stroke-linejoin="round" stroke-dasharray="0 0"/></g><g transform="translate(1540.0001713208685, 805.7214374365508) rotate(0, 379.1484375, 27)" width="758.296875" height="54"><text text-decoration="none" x="379.1484375" fill="#4b4b4b" font-size="10pt" font-family="noto_regular"  y="14"></text><text text-decoration="none" x="379.1484375" fill="#4b4b4b" font-size="10pt" font-family="noto_regular"  y="32"></text><text text-decoration="none" x="379.1484375" fill="#4b4b4b" font-size="10pt" font-family="noto_regular"  y="50"></text><text text-decoration="none" x="379.1484375" fill="#4b4b4b" font-size="10pt" font-family="noto_regular"  y="68"></text></g></g><g id="3rLvcpffynA"><g transform="translate(1879.996130534565 481.06879)"><path d="M 24.9999604604688,49.9999209209376 L 24.9999604604688,49.9999209209376 L 24.9999604604688,49.9999209209376 A 24.9999604604688 24.9999604604688 0 0 1 0 24.999960460468802 L 0,24.9999604604688 L 0,24.999960460468802 A 24.9999604604688 24.9999604604688 0 0 1 24.9999604604688 0 L 125.00390900496606,0 L 125.00390900496606,0 L 125.00390900496606,0 A 24.9999604604688 24.9999604604688 0 0 1 150.00386946543486 24.9999604604688 L 150.00386946543486,24.9999604604688 L 150.00386946543486,24.9999604604688 A 24.9999604604688 24.9999604604688 0 0 1 125.00390900496606 49.9999209209376 L 24.9999604604688,49.9999209209376 Z" fill="rgb(255,255,255)" stroke="#f77474" stroke-width="2" stroke-linecap="round" stroke-linejoin="round" stroke-dasharray="0 0"/></g><g transform="translate(1908.7380652672825, 497.0687504604688) rotate(0, 46.26, 9)" width="92.52" height="18"><text text-decoration="none" x="0.0021874999999980105" fill="rgb(26, 26, 26)" font-size="10pt" font-family="noto_regular"  y="14">Select&#160;</text><text text-decoration="none" x="40.4709375" fill="rgb(26, 26, 26)" font-size="10pt" font-family="noto_regular"  y="14">a&#160;</text><text text-decoration="none" x="51.4240625" fill="rgb(26, 26, 26)" font-size="10pt" font-family="noto_regular"  y="14">cohort</text><text text-decoration="none" x="92.51781249999999" fill="#4b4b4b" font-size="10pt" font-family="noto_regular"  y="14"></text></g></g><g id="JseSwsUhq1q"><g transform="translate(1710.7108256632052 490)"><path d="M 10,0 Q -10,30.850980804497222 10,61.701961608994445 L 70.00040867358935,61.701961608994445 Q 90.00040867358935,30.850980804497222 70.00040867358935,0 L 70.00040867358935,0 Z M 70.00040867358935,0 Q 50.00040867358935,30.850980804497222 70.00040867358935,61.701961608994445" fill="rgb(255,255,255)" stroke="#f9b367" stroke-width="2" stroke-linecap="round" stroke-linejoin="round" stroke-dasharray="0 0"/></g><g transform="translate(1719.5559973061127, 502.84598080449723) rotate(0, 24.755, 18.005)" width="49.51" height="36.01"><text text-decoration="none" x="0.004999999999999005" fill="rgb(26, 26, 26)" font-size="10pt" font-family="noto_regular"  y="14">Cohorts&#160;</text><text text-decoration="none" x="11.676874999999999" fill="rgb(26, 26, 26)" font-size="10pt" font-family="noto_regular"  y="32">1&#160;</text><text text-decoration="none" x="22.489375" fill="rgb(26, 26, 26)" font-size="10pt" font-family="noto_regular"  y="32">-&#160;</text><text text-decoration="none" x="30.489375" fill="rgb(26, 26, 26)" font-size="10pt" font-family="noto_regular"  y="32">7</text><text text-decoration="none" x="37.833124999999995" fill="#4b4b4b" font-size="10pt" font-family="noto_regular"  y="32"></text></g></g><g id="hJ6mGOwRi1V"><g><path d="M 1880,506 L 1845.3536705793802,506.05335156920364 Q 1838.413411417979,506.0640388114926 1835,513 Q 1833.2126378877003,520.8581742711623 1825.3537388762497,520.8845785457098 L 1791,521" fill="none" stroke="#1a1a1a" stroke-width="2" stroke-linecap="round" stroke-linejoin="round" stroke-dasharray="0 0"/><path d="M 1791,521 L 1799.695652173913,526.75 L 1799.695652173913,515.25 Z" fill="rgb(26,26,26)" stroke="#1a1a1a" stroke-width="2" stroke-linecap="round" stroke-linejoin="round"/></g></g><g id="6W2p3BXRWxc"><g transform="translate(1689.08277 675.06841)"><rect x="0" y="0" width="179.9978300950649" height="50.000049732219416" fill="rgb(255,255,255)" stroke="#24afaf" stroke-width="2" stroke-linecap="round" stroke-linejoin="round" stroke-dasharray="0 0"/></g><g transform="translate(1708.5616850475326, 691.0684348661097) rotate(0, 70.52, 9)" width="141.04" height="18"><text text-decoration="none" x="0.004374999999996021" fill="rgb(26, 26, 26)" font-size="10pt" font-family="noto_regular"  y="14">Download&#160;</text><text text-decoration="none" x="67.17625" fill="rgb(26, 26, 26)" font-size="10pt" font-family="noto_regular"  y="14">MRI&#160;</text><text text-decoration="none" x="95.55125" fill="rgb(26, 26, 26)" font-size="10pt" font-family="noto_regular"  y="14">images</text><text text-decoration="none" x="141.03562499999998" fill="#4b4b4b" font-size="10pt" font-family="noto_regular"  y="14"></text></g></g><g id="pqikHcQUqGs"><mask id="3af67" x="1765" y="626" width="204" height="63" maskUnits="userSpaceOnUse"><rect x="1765" y="626" width="204" height="63" fill="white" />undefined<rect x="1863.943680855012" y="636" width="70.18" height="24" fill="black" /></mask><g mask="url(#3af67)"><path d="M 1955,640 Q 1952.9980767534094,648 1944.998076522174,648 L 1867,648 L 1789.0816850475326,648 Q 1779.0816850475326,648 1779.0514314646775,657.9999542359315 L 1779,675" fill="none" stroke="#1a1a1a" stroke-width="2" stroke-linecap="round" stroke-linejoin="round" stroke-dasharray="0 0"/><path d="M 1779,675 L 1784.75,666.304347826087 L 1773.25,666.304347826087 Z" fill="rgb(26,26,26)" stroke="#1a1a1a" stroke-width="2" stroke-linecap="round" stroke-linejoin="round"/></g>undefined<g transform="translate(1866.943680855012, 639)" width="64.18" height="18"><rect x="-2.5" y="0" width="69.171875" height="20.5" fill="#1a1a1a" rx="5"/><text text-decoration="none" x="0.004062500000003411" fill="#FFFFFF" font-size="10pt" font-family="noto_regular"  y="14">Radiomics</text><text text-decoration="none" x="64.1759375" fill="#4b4b4b" font-size="10pt" font-family="noto_regular"  y="14"></text></g></g><g id="HdAcVjPah9z"><g><path d="M 1689,700 L 1667.392751560379,700.0467832640785 Q 1661.3116331957367,700.0599498904141 1657,694 Q 1653.8366832073882,687.6172993911664 1647.393719912899,687.7058776875505 L 1626,688" fill="none" stroke="#1a1a1a" stroke-width="2" stroke-linecap="round" stroke-linejoin="round" stroke-dasharray="0 0"/><path d="M 1626,688 L 1634.695652173913,693.75 L 1634.695652173913,682.25 Z" fill="rgb(26,26,26)" stroke="#1a1a1a" stroke-width="2" stroke-linecap="round" stroke-linejoin="round"/></g></g><g id="ULbPDHfhePF"><g transform="translate(1689.08277 760)"><rect x="0" y="0" width="179.99783009506484" height="59.999086085361085" fill="rgb(255,255,255)" stroke="#24afaf" stroke-width="2" stroke-linecap="round" stroke-linejoin="round" stroke-dasharray="0 0"/></g><g transform="translate(1713.0466850475323, 771.9945430426806) rotate(0, 66.035, 18.005)" width="132.07" height="36.01"><text text-decoration="none" x="0.0037499999999965894" fill="rgb(26, 26, 26)" font-size="10pt" font-family="noto_regular"  y="14">Compute&#160;</text><text text-decoration="none" x="61.206875" fill="rgb(26, 26, 26)" font-size="10pt" font-family="noto_regular"  y="14">segmented&#160;</text><text text-decoration="none" x="4.105312499999997" fill="rgb(26, 26, 26)" font-size="10pt" font-family="noto_regular"  y="32">white&#160;</text><text text-decoration="none" x="42.0584375" fill="rgb(26, 26, 26)" font-size="10pt" font-family="noto_regular"  y="32">matter&#160;</text><text text-decoration="none" x="88.1209375" fill="rgb(26, 26, 26)" font-size="10pt" font-family="noto_regular"  y="32">masks</text><text text-decoration="none" x="127.9646875" fill="#4b4b4b" font-size="10pt" font-family="noto_regular"  y="32"></text></g></g><g id="AUjgyHha5sy"><g><path d="M 1779,725 L 1779,743 Q 1779.0371284754847,752.0612469744614 1779.0349169098724,752.5341205025766 L 1779,760" fill="none" stroke="#1a1a1a" stroke-width="2" stroke-linecap="round" stroke-linejoin="round" stroke-dasharray="0 0"/><path d="M 1779,760 L 1784.75,751.304347826087 L 1773.25,751.304347826087 Z" fill="rgb(26,26,26)" stroke="#1a1a1a" stroke-width="2" stroke-linecap="round" stroke-linejoin="round"/></g></g><g id="GaaahYqb2Bx"><g transform="translate(1689.08277 849.99848)"><rect x="0" y="0" width="179.99783009506484" height="59.99908608536106" fill="rgb(255,255,255)" stroke="#24afaf" stroke-width="2" stroke-linecap="round" stroke-linejoin="round" stroke-dasharray="0 0"/></g><g transform="translate(1716.0566850475323, 861.9930230426805) rotate(0, 63.025, 18.005)" width="126.05" height="36.01"><text text-decoration="none" x="0.001562499999998579" fill="rgb(26, 26, 26)" font-size="10pt" font-family="noto_regular"  y="14">Compute&#160;</text><text text-decoration="none" x="61.2046875" fill="rgb(26, 26, 26)" font-size="10pt" font-family="noto_regular"  y="14">radiomics&#160;</text><text text-decoration="none" x="126.0484375" fill="rgb(26, 26, 26)" font-size="10pt" font-family="noto_regular"  y="14"></text><text text-decoration="none" x="37.0015625" fill="#4b4b4b" font-size="10pt" font-family="noto_regular"  y="32">features</text><text text-decoration="none" x="89.0484375" fill="#4b4b4b" font-size="10pt" font-family="noto_regular"  y="32"></text></g></g><g id="FirY3UPR7Bx"><g><path d="M 1779,820 L 1779,850" fill="none" stroke="#1a1a1a" stroke-width="2" stroke-linecap="round" stroke-linejoin="round" stroke-dasharray="0 0"/><path d="M 1779,850 L 1784.75,841.304347826087 L 1773.25,841.304347826087 Z" fill="rgb(26,26,26)" stroke="#1a1a1a" stroke-width="2" stroke-linecap="round" stroke-linejoin="round"/></g></g><g id="HSpdnTRdBCG"><g transform="translate(1879.99613 560)"><path d="M 75.00194652217398,0 L 0,39.994959562269926 L 75.00194652217398,79.98991912453985 L 150.00389304434796,39.994959562269926 L 75.00194652217398,0 Z" fill="rgb(255,255,255)" stroke="#4b4b4b" stroke-width="2" stroke-linecap="round" stroke-linejoin="round" stroke-dasharray="0 0"/></g><g transform="translate(1905.503076522174, 590.99495956227) rotate(0, 49.495, 9)" width="98.99" height="18"><text text-decoration="none" x="0.002812499999997442" fill="rgb(26, 26, 26)" font-size="10pt" font-family="noto_regular"  y="14">Extract&#160;</text><text text-decoration="none" x="46.9403125" fill="rgb(26, 26, 26)" font-size="10pt" font-family="noto_regular"  y="14">features</text><text text-decoration="none" x="98.9871875" fill="#4b4b4b" font-size="10pt" font-family="noto_regular"  y="14"></text></g></g><g id="ydUDydvdiZH"><g transform="translate(2060.01135 675.0684098627517)"><rect x="0" y="0" width="183.1225950440734" height="50.00000013724835" fill="rgb(255,255,255)" stroke="#24afaf" stroke-width="2" stroke-linecap="round" stroke-linejoin="round" stroke-dasharray="0 0"/></g><g transform="translate(2072.712647522037, 691.0684099313758) rotate(0, 78.86, 9)" width="157.72" height="18"><text text-decoration="none" x="0.0006249999999994316" fill="rgb(26, 26, 26)" font-size="10pt" font-family="noto_regular"  y="14">Sum&#160;</text><text text-decoration="none" x="31.500625" fill="rgb(26, 26, 26)" font-size="10pt" font-family="noto_regular"  y="14">UDPRS&#160;</text><text text-decoration="none" x="78.125625" fill="rgb(26, 26, 26)" font-size="10pt" font-family="noto_regular"  y="14">for&#160;</text><text text-decoration="none" x="99.76625" fill="rgb(26, 26, 26)" font-size="10pt" font-family="noto_regular"  y="14">each&#160;</text><text text-decoration="none" x="132.875625" fill="rgb(26, 26, 26)" font-size="10pt" font-family="noto_regular"  y="14">visit</text><text text-decoration="none" x="157.719375" fill="#4b4b4b" font-size="10pt" font-family="noto_regular"  y="14"></text></g></g><g id="u7YzaWbRaC8"><mask id="61c9d" x="1941" y="626" width="225" height="63" maskUnits="userSpaceOnUse"><rect x="1941" y="626" width="225" height="63" fill="white" /><rect x="1983.579016054747" y="636" width="97.63" height="24" fill="black" /></mask><g mask="url(#61c9d)"><path d="M 1955,640 Q 1956.9980762909386,648 1964.998076522174,648 L 2053,648 L 2141.572647522037,648 Q 2151.572647522037,648 2151.730906395199,657.9987476280315 L 2152,675" fill="none" stroke="#1a1a1a" stroke-width="2" stroke-linecap="round" stroke-linejoin="round" stroke-dasharray="0 0"/><path d="M 2152,675 L 2157.75,666.304347826087 L 2146.25,666.304347826087 Z" fill="rgb(26,26,26)" stroke="#1a1a1a" stroke-width="2" stroke-linecap="round" stroke-linejoin="round"/></g><g transform="translate(1986.579016054747, 639)" width="91.63" height="18"><rect x="-2.5" y="0" width="96.625" height="20.5" fill="#1a1a1a" rx="5"/><text text-decoration="none" x="0.0024999999999977263" fill="#FFFFFF" font-size="10pt" font-family="noto_regular"  y="14">Demographics</text><text text-decoration="none" x="91.6275" fill="#4b4b4b" font-size="10pt" font-family="noto_regular"  y="14"></text></g></g><g id="OHzEeSLKfpR"><g transform="translate(2060.011349694443 760)"><rect x="0" y="0" width="183.1226003055565" height="60" fill="rgb(255,255,255)" stroke="#24afaf" stroke-width="2" stroke-linecap="round" stroke-linejoin="round" stroke-dasharray="0 0"/></g><g transform="translate(2085.6226498472215, 771.995) rotate(0, 65.95, 18.005)" width="131.9" height="36.01"><text text-decoration="none" x="0.004687500000002842" fill="rgb(26, 26, 26)" font-size="10pt" font-family="noto_regular"  y="14">Extract&#160;</text><text text-decoration="none" x="46.9421875" fill="rgb(26, 26, 26)" font-size="10pt" font-family="noto_regular"  y="14">age,&#160;</text><text text-decoration="none" x="76.9421875" fill="rgb(26, 26, 26)" font-size="10pt" font-family="noto_regular"  y="14">sex,&#160;</text><text text-decoration="none" x="104.7078125" fill="rgb(26, 26, 26)" font-size="10pt" font-family="noto_regular"  y="14">H&#x26;Y&#160;</text><text text-decoration="none" x="48.746875" fill="rgb(26, 26, 26)" font-size="10pt" font-family="noto_regular"  y="32">stage</text><text text-decoration="none" x="83.153125" fill="#4b4b4b" font-size="10pt" font-family="noto_regular"  y="32"></text></g></g><g id="6pdmLtcczZy"><g><path d="M 2152,725 L 2151.81630020361,732.5371737721422 Q 2151.8008980558766,733.1691214727402 2152,743 Q 2151.8017926509942,751.8992683102749 2151.8172549672827,752.5312129691495 L 2152,760" fill="none" stroke="#1a1a1a" stroke-width="2" stroke-linecap="round" stroke-linejoin="round" stroke-dasharray="0 0"/><path d="M 2152,760 L 2157.75,751.304347826087 L 2146.25,751.304347826087 Z" fill="rgb(26,26,26)" stroke="#1a1a1a" stroke-width="2" stroke-linecap="round" stroke-linejoin="round"/></g></g><g id="dfOuT6fn1l2"><g transform="translate(2030.00002 980)"><rect x="0" y="0" width="64.50124238398924" height="60" fill="rgb(232,241,248)" stroke="#699ec5" stroke-width="2" stroke-linecap="round" stroke-linejoin="round" stroke-dasharray="0 0"/></g><g transform="translate(2055.1156411919947, 1001) rotate(0, 7.135, 9)" width="14.27" height="18"><text text-decoration="none" x="0.002187499999999787" fill="#38566e" font-weight="bold" font-size="10pt" font-family="noto_regular"  y="14">F1</text><text text-decoration="none" x="14.2678125" fill="#4b4b4b" font-size="10pt" font-family="noto_regular"  y="14"></text></g></g><g id="lnp2epTN5S8"><g transform="translate(2118.6337413108013 980)"><rect x="0" y="0" width="66.25349737839777" height="60" fill="rgb(232,241,248)" stroke="#699ec5" stroke-width="2" stroke-linecap="round" stroke-linejoin="round" stroke-dasharray="0 0"/></g><g transform="translate(2144.62549, 1001) rotate(0, 7.135, 9)" width="14.27" height="18"><text text-decoration="none" x="0.002187499999999787" fill="#38566e" font-weight="bold" font-size="10pt" font-family="noto_regular"  y="14">F2</text><text text-decoration="none" x="14.2678125" fill="#4b4b4b" font-size="10pt" font-family="noto_regular"  y="14"></text></g></g><g id="U5PrAjUbGCE"><g transform="translate(2209.85912 980)"><rect x="0" y="0" width="66.54965040882306" height="60" fill="rgb(232,241,248)" stroke="#699ec5" stroke-width="2" stroke-linecap="round" stroke-linejoin="round" stroke-dasharray="0 0"/></g><g transform="translate(2235.9989452044115, 1001) rotate(0, 7.135, 9)" width="14.27" height="18"><text text-decoration="none" x="0.002187499999999787" fill="#38566e" font-weight="bold" font-size="10pt" font-family="noto_regular"  y="14">F3</text><text text-decoration="none" x="14.2678125" fill="#4b4b4b" font-size="10pt" font-family="noto_regular"  y="14"></text></g></g><g id="tKhwL1rfKRM"><g transform="translate(1799.7027834022185 967.5684117529978)"><rect x="0" y="0" width="90.00824290193677" height="59.999966818342735" fill="rgb(255,255,255)" stroke="#24afaf" stroke-width="2" stroke-linecap="round" stroke-linejoin="round" stroke-dasharray="0 0"/></g><g transform="translate(1818.6819048531868, 979.5633951621693) rotate(0, 26.025, 18.005)" width="52.05" height="36.01"><text text-decoration="none" x="3.9624999999999986" fill="#4b4b4b" font-size="10pt" font-family="noto_regular"  y="14">Angled&#160;</text><text text-decoration="none" x="0.001562499999998579" fill="#4b4b4b" font-size="10pt" font-family="noto_regular"  y="32">features</text><text text-decoration="none" x="52.0484375" fill="#4b4b4b" font-size="10pt" font-family="noto_regular"  y="32"></text></g></g><g id="xpFtLV8jbGV"><g><path d="M 1779,910 L 1779.0533055353085,928.7830291890962 Q 1779.0816850475323,938.7829889191794 1789.0814677551625,938.8489116025394 L 1812,939 L 1834.7071249636006,938.8493376932853 Q 1844.7069048531869,938.7829889191794 1844.8072164146313,948.7824857860543 L 1845,968" fill="none" stroke="#1a1a1a" stroke-width="2" stroke-linecap="round" stroke-linejoin="round" stroke-dasharray="0 0"/><path d="M 1845,968 L 1850.75,959.304347826087 L 1839.25,959.304347826087 Z" fill="rgb(26,26,26)" stroke="#1a1a1a" stroke-width="2" stroke-linecap="round" stroke-linejoin="round"/></g></g><g id="dA7VePevg3N"><g transform="translate(1660.702783402219 967.5684117529978)"><rect x="0" y="0" width="90.0082429019368" height="59.99996681834273" fill="rgb(255,255,255)" stroke="#24afaf" stroke-width="2" stroke-linecap="round" stroke-linejoin="round" stroke-dasharray="0 0"/></g><g transform="translate(1675.8469048531877, 979.5633951621691) rotate(0, 29.86, 18.005)" width="59.72" height="36.01"><text text-decoration="none" x="0.0006249999999994316" fill="#4b4b4b" font-size="10pt" font-family="noto_regular"  y="14">Averaged</text><text text-decoration="none" x="59.719375" fill="#4b4b4b" font-size="10pt" font-family="noto_regular"  y="14"></text><text text-decoration="none" x="3.8365624999999994" fill="#4b4b4b" font-size="10pt" font-family="noto_regular"  y="32">features</text><text text-decoration="none" x="55.8834375" fill="#4b4b4b" font-size="10pt" font-family="noto_regular"  y="32"></text></g></g><g id="7CqsfGSYhEC"><g><path d="M 1779,910 L 1779.0533055353085,928.7830291890962 Q 1779.0816850475323,938.7829889191794 1769.081856286952,938.8415103602782 L 1742,939 L 1715.7067260916158,938.8427818909881 Q 1705.7069048531876,938.7829889191794 1705.8072164146317,948.7824857860543 L 1706,968" fill="none" stroke="#1a1a1a" stroke-width="2" stroke-linecap="round" stroke-linejoin="round" stroke-dasharray="0 0"/><path d="M 1706,968 L 1711.75,959.304347826087 L 1700.25,959.304347826087 Z" fill="rgb(26,26,26)" stroke="#1a1a1a" stroke-width="2" stroke-linecap="round" stroke-linejoin="round"/></g></g><g id="cnaqNBL1vaP"><g><path d="M 2152,820 L 2151.8574488135705,825.0032963452585 Q 2151.845277906146,825.4304738255784 2152,835 Q 2151.9163116473824,844.7584860884077 2151.92013528435,844.9979656065484 L 2152,850" fill="none" stroke="#1a1a1a" stroke-width="2" stroke-linecap="round" stroke-linejoin="round" stroke-dasharray="0 0"/><path d="M 2152,850 L 2157.75,841.304347826087 L 2146.25,841.304347826087 Z" fill="rgb(26,26,26)" stroke="#1a1a1a" stroke-width="2" stroke-linecap="round" stroke-linejoin="round"/></g></g><g id="zealOsOQ9YD"><g transform="translate(1889.71103 1057.56693)"><path d="M 0,60 L 20,0 L 110.00107999614812,0 L 90.00107999614812,60 L 0,60 Z" fill="rgb(255,255,255)" stroke="#f9b367" stroke-width="2" stroke-linecap="round" stroke-linejoin="round" stroke-dasharray="0 0"/></g><g transform="translate(1913.731569998074, 1069.5619299999998) rotate(0, 30.98, 18.005)" width="61.96" height="36.01"><text text-decoration="none" x="0.0034375000000004263" fill="rgb(26, 26, 26)" font-size="10pt" font-family="noto_regular"  y="14">All&#160;</text><text text-decoration="none" x="18.8784375" fill="rgb(26, 26, 26)" font-size="10pt" font-family="noto_regular"  y="14">angled&#160;</text><text text-decoration="none" x="4.9565625" fill="rgb(26, 26, 26)" font-size="10pt" font-family="noto_regular"  y="32">features</text><text text-decoration="none" x="57.003437500000004" fill="#4b4b4b" font-size="10pt" font-family="noto_regular"  y="32"></text></g></g><g id="jrxyd5TkqGU"><g><path d="M 1890,998 L 1934.711881143906,997.6472800138819 Q 1944.711569998074,997.5683951621693 1944.7592977917586,1007.5682812644061 L 1945,1058" fill="none" stroke="#1a1a1a" stroke-width="2" stroke-linecap="round" stroke-linejoin="round" stroke-dasharray="0 0"/><path d="M 1945,1058 L 1950.75,1049.304347826087 L 1939.25,1049.304347826087 Z" fill="rgb(26,26,26)" stroke="#1a1a1a" stroke-width="2" stroke-linecap="round" stroke-linejoin="round"/></g></g><g id="52pK8L9gWZW"><g transform="translate(1550.7027812260228 1057.5669317529978)"><path d="M 0,60 L 20,0 L 110.00000145079737,0 L 90.00000145079737,60 L 0,60 Z" fill="rgb(255,255,255)" stroke="#f9b367" stroke-width="2" stroke-linecap="round" stroke-linejoin="round" stroke-dasharray="0 0"/></g><g transform="translate(1566.9277819514214, 1069.5619317529977) rotate(0, 38.775, 18.005)" width="77.55" height="36.01"><text text-decoration="none" x="0.001562499999998579" fill="rgb(26, 26, 26)" font-size="10pt" font-family="noto_regular"  y="14">All&#160;</text><text text-decoration="none" x="18.8765625" fill="rgb(26, 26, 26)" font-size="10pt" font-family="noto_regular"  y="14">averaged&#160;</text><text text-decoration="none" x="12.751562499999999" fill="rgb(26, 26, 26)" font-size="10pt" font-family="noto_regular"  y="32">features</text><text text-decoration="none" x="64.7984375" fill="#4b4b4b" font-size="10pt" font-family="noto_regular"  y="32"></text></g></g><g id="cXzxRwXDczB"><g><path d="M 1660.7027826768206,997.568791752998 L 1615.7027819511616,997.5684672695917 Q 1605.7027819514215,997.5683951621692 1605.7027820723206,1007.5683951621692 L 1605.7027826768206,1057.568791752998" fill="none" stroke="#1a1a1a" stroke-width="2" stroke-linecap="round" stroke-linejoin="round" stroke-dasharray="0 0"/><path d="M 1605.7027826768206,1057.568791752998 L 1611.4527826768206,1048.873139579085 L 1599.9527826768206,1048.873139579085 Z" fill="rgb(26,26,26)" stroke="#1a1a1a" stroke-width="2" stroke-linecap="round" stroke-linejoin="round"/></g></g><g id="qVCOqyrgNZf"><g transform="translate(1811.580151310801 1140)"><rect x="0" y="0" width="66.25349737839777" height="60" fill="rgb(232,241,248)" stroke="#699ec5" stroke-width="2" stroke-linecap="round" stroke-linejoin="round" stroke-dasharray="0 0"/></g><g transform="translate(1837.5719, 1161) rotate(0, 7.135, 9)" width="14.27" height="18"><text text-decoration="none" x="0.002187499999999787" fill="#38566e" font-weight="bold" font-size="10pt" font-family="noto_regular"  y="14">F7</text><text text-decoration="none" x="14.2678125" fill="#4b4b4b" font-size="10pt" font-family="noto_regular"  y="14"></text></g></g><g id="dAMpgxAJ6kR"><g transform="translate(1672.58015 1140)"><rect x="0" y="0" width="66.25349737839777" height="60" fill="rgb(232,241,248)" stroke="#699ec5" stroke-width="2" stroke-linecap="round" stroke-linejoin="round" stroke-dasharray="0 0"/></g><g transform="translate(1698.5718986891989, 1161) rotate(0, 7.135, 9)" width="14.27" height="18"><text text-decoration="none" x="0.002187499999999787" fill="#38566e" font-weight="bold" font-size="10pt" font-family="noto_regular"  y="14">F4</text><text text-decoration="none" x="14.2678125" fill="#4b4b4b" font-size="10pt" font-family="noto_regular"  y="14"></text></g></g><g id="eOMolamTy12"><g><path d="M 1706,1028 L 1705.759445027229,1073.784327310117 Q 1705.7575326873748,1074.1482989744823 1706,1084 Q 1705.7571388473486,1093.4200766622569 1705.7590365705666,1093.784053366813 L 1706,1140" fill="none" stroke="#1a1a1a" stroke-width="2" stroke-linecap="round" stroke-linejoin="round" stroke-dasharray="0 0"/><path d="M 1706,1140 L 1711.75,1131.304347826087 L 1700.25,1131.304347826087 Z" fill="rgb(26,26,26)" stroke="#1a1a1a" stroke-width="2" stroke-linecap="round" stroke-linejoin="round"/></g></g><g id="a8opHLuwdHE"><g><path d="M 1845,1028 L 1844.7594450272284,1073.7843273101173 Q 1844.7575326873741,1074.148298974483 1845,1084 Q 1844.7571399389763,1093.4200777189542 1844.7590376482042,1093.7840533680287 L 1845,1140" fill="none" stroke="#1a1a1a" stroke-width="2" stroke-linecap="round" stroke-linejoin="round" stroke-dasharray="0 0"/><path d="M 1845,1140 L 1850.75,1131.304347826087 L 1839.25,1131.304347826087 Z" fill="rgb(26,26,26)" stroke="#1a1a1a" stroke-width="2" stroke-linecap="round" stroke-linejoin="round"/></g></g><g id="63kLnQg1o7Y"><g><path d="M 1955,531 L 1954.9993964117598,535.534355549066 Q 1954.999334427209,536.0000041038194 1955,546 Q 1954.9993442924042,555.0687068639302 1954.999406209077,555.5343553720654 L 1955,560" fill="none" stroke="#1a1a1a" stroke-width="2" stroke-linecap="round" stroke-linejoin="round" stroke-dasharray="0 0"/><path d="M 1955,560 L 1960.75,551.304347826087 L 1949.25,551.304347826087 Z" fill="rgb(26,26,26)" stroke="#1a1a1a" stroke-width="2" stroke-linecap="round" stroke-linejoin="round"/></g></g><g id="otKdpL1LNQc"><g transform="translate(1530 449.9999999999999)"><rect x="0" y="0" width="220" height="40" fill="rgba(255,255,255,0.01)" stroke="rgba(255,255,255,0.01)"  stroke-dasharray="0 0"/></g><g transform="translate(1540, 459.9999999999999) rotate(0, 0, 0)" width="181.75" height="18"><text text-decoration="none" x="0" fill="#4b4b4b" font-weight="bold" font-size="10pt" font-family="noto_regular"  y="14">Workflow:&#160;</text><text text-decoration="none" x="67.0625" fill="#4b4b4b" font-weight="bold" font-size="10pt" font-family="noto_regular"  y="14">Feature&#160;</text><text text-decoration="none" x="118.53125" fill="#4b4b4b" font-weight="bold" font-size="10pt" font-family="noto_regular"  y="14">Extraction</text><text text-decoration="none" x="181.75" fill="#4b4b4b" font-size="10pt" font-family="noto_regular"  y="14"></text></g></g><g id="gLVS7Q21MMd"><g transform="translate(1550.70278 650.06841)"><rect x="0" y="0" width="75" height="75" fill="rgba(255,255,255,0.01)" stroke="rgba(255,255,255,0.01)"  stroke-dasharray="0 0"/><path d="M 0,0 L 75,0 L 75,75 L 0,75 L 0,0 Z" fill="rgb(59, 72, 204)" stroke="rgba(255,255,255,0.01)"  stroke-dasharray="0 0"/><path d="M 38,13 C 28,13 20.4,16.2 20.4,20.5 L 20.4,57.5 C 20.4,61.8 28,65 38,65 C 48,65 55.6,61.8 55.6,57.5 L 55.6,20.5 C 55.6,16.2 48,13 38,13 Z M 38,15 C 47.2,15 53.6,17.9 53.6,20.5 C 53.6,23.1 47.2,26 38,26 C 28.799999999999997,26 22.4,23.1 22.4,20.5 C 22.4,17.9 28.8,15 38,15 Z M 38,63 C 28.8,63 22.4,60.1 22.4,57.5 L 22.4,49.7 C 25.299999999999997,52.1 31,53.6 38,53.6 C 45,53.6 50.7,52.1 53.6,49.7 L 53.6,57.5 C 53.6,60.1 47.2,63 38,63 Z M 38,51.6 C 28.8,51.6 22.4,48.7 22.4,46.1 L 22.4,37 C 25.299999999999997,39.4 31,40.9 38,40.9 C 45,40.9 50.7,39.4 53.6,37 L 53.6,46.2 C 53.6,48.800000000000004 47.2,51.6 38,51.6 Z M 38,38.900000000000006 C 28.8,38.900000000000006 22.4,36.00000000000001 22.4,33.400000000000006 L 22.4,24 C 25.299999999999997,26.4 31,28 38,28 C 45,28 50.7,26.4 53.6,24 L 53.6,33.4 C 53.6,36 47.2,38.9 38,38.9 Z" fill="rgb(255, 255, 255)" stroke="rgba(255,255,255,0.01)"  stroke-dasharray="0 0"/></g><g transform="translate(1558.6527800000001, 735.06841) rotate(0, 29.55, 0)" width="59.1" height="36.01"><text text-decoration="none" x="13.175" fill="rgb(26, 26, 26)" font-size="10pt" font-family="noto_regular"  y="14">PPMI&#160;</text><text text-decoration="none" x="0.0031250000000007105" fill="rgb(26, 26, 26)" font-size="10pt" font-family="noto_regular"  y="32">Database</text><text text-decoration="none" x="59.096875" fill="#4b4b4b" font-size="10pt" font-family="noto_regular"  y="32"></text></g></g><g id="9NaTO9DlAY4"><g transform="translate(1690.21598324301 1040)"><rect x="0" y="0" width="169.7840183044447" height="63.006928082847566" fill="white" stroke="#1a1a1a" stroke-width="2" stroke-linecap="round" stroke-linejoin="round" stroke-dasharray="0 0"/></g><g transform="translate(1727.8779923952325, 1053.4984640414236) rotate(0, 47.23, 18.005)" width="94.46" height="36.01"><text text-decoration="none" x="0.0034374999999968736" fill="#4b4b4b" font-size="10pt" font-family="noto_regular"  y="14">Select&#160;</text><text text-decoration="none" x="40.4721875" fill="#4b4b4b" font-size="10pt" font-family="noto_regular"  y="14">Shu&#160;</text><text text-decoration="none" x="67.73781249999999" fill="#4b4b4b" font-size="10pt" font-family="noto_regular"  y="14">et&#160;</text><text text-decoration="none" x="83.53468749999999" fill="#4b4b4b" font-size="10pt" font-family="noto_regular"  y="14">al&#160;</text><text text-decoration="none" x="21.206562499999997" fill="#4b4b4b" font-size="10pt" font-family="noto_regular"  y="32">features</text><text text-decoration="none" x="73.25343749999999" fill="#4b4b4b" font-size="10pt" font-family="noto_regular"  y="32"></text></g></g><g id="JNdGRH8LnJ3"><g transform="translate(2083.5209803352573 849.99848)"><path d="M 68.23951082939728,0 L 0,35.00030366375601 L 68.23951082939728,70.00060732751201 L 136.47902165879455,35.00030366375601 L 68.23951082939728,0 Z" fill="white" stroke="#1a1a1a" stroke-width="2" stroke-linecap="round" stroke-linejoin="round" stroke-dasharray="0 0"/></g><g transform="translate(2105.5004911646542, 875.9987836637561) rotate(0, 46.26, 9)" width="92.52" height="18"><text text-decoration="none" x="0.0021874999999980105" fill="#4b4b4b" font-size="10pt" font-family="noto_regular"  y="14">Select&#160;</text><text text-decoration="none" x="40.4709375" fill="#4b4b4b" font-size="10pt" font-family="noto_regular"  y="14">features</text><text text-decoration="none" x="92.51781249999999" fill="#4b4b4b" font-size="10pt" font-family="noto_regular"  y="14"></text></g></g><g id="RXL3n2VB5bZ"><mask id="a23e3" x="2048" y="906" width="118" height="88" maskUnits="userSpaceOnUse"><rect x="2048" y="906" width="118" height="88" fill="white" />undefined</mask><g mask="url(#a23e3)"><path d="M 2152,920 L 2151.84032489891,940.000318676334 Q 2151.7604911646545,950 2141.7604911646545,950 L 2107,950 L 2072.250641191995,950 Q 2062.250641191995,950 2062.167097043683,959.9996510126746 L 2062,980" fill="none" stroke="#1a1a1a" stroke-width="2" stroke-linecap="round" stroke-linejoin="round" stroke-dasharray="0 0"/><path d="M 2062,980 L 2067.75,971.304347826087 L 2056.25,971.304347826087 Z" fill="rgb(26,26,26)" stroke="#1a1a1a" stroke-width="2" stroke-linecap="round" stroke-linejoin="round"/></g>undefined</g><g id="lJ1r2hV3Cbq"><g><path d="M 2152,920 L 2151.8403261132185,939.9998623497846 Q 2151.8384139921927,940.2393639870327 2152,950 Q 2151.8384108267046,959.7597221917638 2151.8403229081587,959.9992249940171 L 2152,980" fill="none" stroke="#1a1a1a" stroke-width="2" stroke-linecap="round" stroke-linejoin="round" stroke-dasharray="0 0"/><path d="M 2152,980 L 2157.75,971.304347826087 L 2146.25,971.304347826087 Z" fill="rgb(26,26,26)" stroke="#1a1a1a" stroke-width="2" stroke-linecap="round" stroke-linejoin="round"/></g></g><g id="T3HoCVq3oMa"><g><path d="M 2152,920 L 2151.8403261132185,939.9998623497846 Q 2151.7604911646545,949.999543663756 2161.7604911641456,949.9996445349316 L 2197,950 L 2233.133945204901,949.9996425792599 Q 2243.1339452044117,949.999543663756 2243.0892979270884,959.9994439942907 L 2243,980" fill="none" stroke="#1a1a1a" stroke-width="2" stroke-linecap="round" stroke-linejoin="round" stroke-dasharray="0 0"/><path d="M 2243,980 L 2248.75,971.304347826087 L 2237.25,971.304347826087 Z" fill="rgb(26,26,26)" stroke="#1a1a1a" stroke-width="2" stroke-linecap="round" stroke-linejoin="round"/></g></g></svg>