<svg xmlns="http://www.w3.org/2000/svg" xmlns:svg="http://www.w3.org/2000/svg" xmlns:xlink="http://www.w3.org/1999/xlink" version="1.0" height="980.0000000005891pt" width="725.2934151699596pt" viewBox="639.7063456091701 -212.99999999999997 733.2934151699596 986.0000000005891" ><defs><style type="text/css">
            @font-face {
                font-family: 'noto_regular';
                src: url('https://app.creately.com/d/assets/fonts/noto/noto-regular.woff') format('woff'),
                     url('https://app.creately.com/d/assets/fonts/noto/noto-regular.woff2') format('woff2');
                font-weight: normal;
                font-style: normal;
            }
        p {
            margin: 0;
        }
        </style></defs><defs>
        <style>
            span{ display: inline-block; }
            
        </style>
        
        </defs><g id="0hTe9V7lQwZ"><g transform="translate(644.7063456091701 -209.0540146718265)"><rect x="0" y="0" width="725.2934151699595" height="979.0540146724156" fill="white" stroke="#1a1a1a" stroke-width="2" stroke-linecap="round" stroke-linejoin="round" stroke-dasharray="0 0"/></g><g transform="translate(628.4702406941499, 271.4729926643813) rotate(0, 378.8828125, 9)" width="757.765625" height="18"><text text-decoration="none" x="378.8828125" fill="#4b4b4b" font-size="10pt" font-family="noto_regular"  y="14"></text><text text-decoration="none" x="378.8828125" fill="#4b4b4b" font-size="10pt" font-family="noto_regular"  y="32"></text></g></g><g id="WDlG7ygDPfl"><g transform="translate(710.0000000000002 -20.000000000000057)"><rect x="0" y="0" width="609.999999999742" height="659.9999999999808" fill="rgb(255,255,255)" stroke="#24afaf" stroke-width="2" stroke-linecap="round" stroke-linejoin="round" stroke-dasharray="3 3"/></g><g transform="translate(719.9999999998712, 291.9999999999903) rotate(0, 295, 18)" width="590" height="36"><text text-decoration="none" x="295" fill="#4b4b4b" font-size="10pt" font-family="noto_regular"  y="14"></text><text text-decoration="none" x="295" fill="#4b4b4b" font-size="10pt" font-family="noto_regular"  y="32"></text><text text-decoration="none" x="295" fill="#4b4b4b" font-size="10pt" font-family="noto_regular"  y="50"></text></g></g><g id="sfZWxHvuR02"><g transform="translate(710 -30)"><rect x="0" y="0" width="120" height="40" fill="rgba(255,255,255,0.01)" stroke="rgba(255,255,255,0.01)"  stroke-dasharray="0 0"/></g><g transform="translate(720, -20) rotate(0, 0, 0)" width="85.29" height="18"><text text-decoration="none" x="0" fill="#4b4b4b" font-size="10pt" font-family="noto_regular"  y="14">CV&#160;</text><text text-decoration="none" x="19.890625" fill="#4b4b4b" font-size="10pt" font-family="noto_regular"  y="14">outer&#160;</text><text text-decoration="none" x="57.5" fill="#4b4b4b" font-size="10pt" font-family="noto_regular"  y="14">loop</text><text text-decoration="none" x="85.28125" fill="#4b4b4b" font-size="10pt" font-family="noto_regular"  y="14"></text></g></g><g id="f1hc3O0TjCe"><g transform="translate(769.9999999999998 90)"><rect x="0" y="0" width="489.9243334751867" height="460.0000026624771" fill="white" stroke="#1a1a1a" stroke-width="2" stroke-linecap="round" stroke-linejoin="round" stroke-dasharray="3 3"/></g><g transform="translate(780.0012292375931, 302.00000133123854) rotate(0, 234.9609375, 18)" width="469.921875" height="36"><text text-decoration="none" x="234.9609375" fill="#4b4b4b" font-size="10pt" font-family="noto_regular"  y="14"></text><text text-decoration="none" x="234.9609375" fill="#4b4b4b" font-size="10pt" font-family="noto_regular"  y="32"></text><text text-decoration="none" x="234.9609375" fill="#4b4b4b" font-size="10pt" font-family="noto_regular"  y="50"></text></g></g><g id="kt6vFo921bM"><mask id="f01b1" x="1001" y="246" width="163" height="88" maskUnits="userSpaceOnUse"><rect x="1001" y="246" width="163" height="88" fill="white" />undefinedundefinedundefinedundefinedundefinedundefined<rect x="1067.0319286475592" y="277.99997575706374" width="39.96" height="24" fill="black" /></mask><g mask="url(#f01b1)"><path d="M 1015,260 L 1015.0000299736098,279.9995951381927 Q 1015.000044960718,289.99959513818146 1025.0000449605407,289.99965467672354 L 1083,290 L 1140.0000000001826,289.99965556531856 Q 1150,289.99959513818146 1150,299.99959513818146 L 1150,320" fill="none" stroke="#1a1a1a" stroke-width="2" stroke-linecap="round" stroke-linejoin="round" stroke-dasharray="0 0"/><path d="M 1150,320 L 1155.75,311.30434782608694 L 1144.25,311.30434782608694 Z" fill="rgb(26,26,26)" stroke="#1a1a1a" stroke-width="2" stroke-linecap="round" stroke-linejoin="round"/></g>undefinedundefinedundefinedundefinedundefinedundefined<g transform="translate(1070.0319286475592, 280.99997575706374)" width="33.96" height="18"><rect x="-2.5" y="0" width="38.953125" height="20.5" fill="#1a1a1a" rx="5"/><text text-decoration="none" x="0.0034375000000004263" fill="#FFFFFF" font-size="10pt" font-family="noto_regular"  y="14">None</text><text text-decoration="none" x="33.956562500000004" fill="#4b4b4b" font-size="10pt" font-family="noto_regular"  y="14"></text></g></g><g id="804zjESRvRU"><g transform="translate(770 80)"><rect x="0" y="0" width="199.999989783262" height="40" fill="rgba(255,255,255,0.01)" stroke="rgba(255,255,255,0.01)"  stroke-dasharray="0 0"/></g><g transform="translate(780, 90) rotate(0, 0, 0)" width="170.9" height="18"><text text-decoration="none" x="0" fill="rgb(75, 75, 75)" font-size="10pt" font-family="noto_regular"  y="14">CV&#160;</text><text text-decoration="none" x="19.890625" fill="rgb(75, 75, 75)" font-size="10pt" font-family="noto_regular"  y="14">inner&#160;</text><text text-decoration="none" x="56.3125" fill="rgb(75, 75, 75)" font-size="10pt" font-family="noto_regular"  y="14">loop&#160;</text><text text-decoration="none" x="87.5625" fill="rgb(75, 75, 75)" font-size="10pt" font-family="noto_regular"  y="14">-&#160;</text><text text-decoration="none" x="95.5625" fill="rgb(75, 75, 75)" font-size="10pt" font-family="noto_regular"  y="14">Grid&#160;</text><text text-decoration="none" x="125.890625" fill="rgb(75, 75, 75)" font-size="10pt" font-family="noto_regular"  y="14">search&#160;</text><text text-decoration="none" x="170.890625" fill="#4b4b4b" font-size="10pt" font-family="noto_regular"  y="14"></text></g></g><g id="ccgPCSEK4w5"><g transform="translate(939.992000534565 -199.1489409209376)"><path d="M 24.9999604604688,49.9999209209376 L 24.9999604604688,49.9999209209376 L 24.9999604604688,49.9999209209376 A 24.9999604604688 24.9999604604688 0 0 1 0 24.999960460468802 L 0,24.9999604604688 L 0,24.999960460468802 A 24.9999604604688 24.9999604604688 0 0 1 24.9999604604688 0 L 125.00390900496606,0 L 125.00390900496606,0 L 125.00390900496606,0 A 24.9999604604688 24.9999604604688 0 0 1 150.00386946543486 24.9999604604688 L 150.00386946543486,24.9999604604688 L 150.00386946543486,24.9999604604688 A 24.9999604604688 24.9999604604688 0 0 1 125.00390900496606 49.9999209209376 L 24.9999604604688,49.9999209209376 Z" fill="rgb(255,255,255)" stroke="#f77474" stroke-width="2" stroke-linecap="round" stroke-linejoin="round" stroke-dasharray="0 0"/></g><g transform="translate(968.7339352672825, -183.1489804604688) rotate(0, 46.26, 9)" width="92.52" height="18"><text text-decoration="none" x="0.0021874999999980105" fill="rgb(26, 26, 26)" font-size="10pt" font-family="noto_regular"  y="14">Select&#160;</text><text text-decoration="none" x="40.4709375" fill="rgb(26, 26, 26)" font-size="10pt" font-family="noto_regular"  y="14">a&#160;</text><text text-decoration="none" x="51.4240625" fill="rgb(26, 26, 26)" font-size="10pt" font-family="noto_regular"  y="14">cohort</text><text text-decoration="none" x="92.51781249999999" fill="#4b4b4b" font-size="10pt" font-family="noto_regular"  y="14"></text></g></g><g id="w1kKE1Vnxr3"><g transform="translate(810 -180.00000080449723)"><path d="M 10,0 Q -10,30.850980804497222 10,61.701961608994445 L 70.00040867358935,61.701961608994445 Q 90.00040867358935,30.850980804497222 70.00040867358935,0 L 70.00040867358935,0 Z M 70.00040867358935,0 Q 50.00040867358935,30.850980804497222 70.00040867358935,61.701961608994445" fill="rgb(255,255,255)" stroke="#f9b367" stroke-width="2" stroke-linecap="round" stroke-linejoin="round" stroke-dasharray="0 0"/></g><g transform="translate(818.8451716429075, -167.15402) rotate(0, 24.755, 18.005)" width="49.51" height="36.01"><text text-decoration="none" x="0.004999999999999005" fill="rgb(26, 26, 26)" font-size="10pt" font-family="noto_regular"  y="14">Cohorts&#160;</text><text text-decoration="none" x="11.676874999999999" fill="rgb(26, 26, 26)" font-size="10pt" font-family="noto_regular"  y="32">1&#160;</text><text text-decoration="none" x="22.489375" fill="rgb(26, 26, 26)" font-size="10pt" font-family="noto_regular"  y="32">-&#160;</text><text text-decoration="none" x="30.489375" fill="rgb(26, 26, 26)" font-size="10pt" font-family="noto_regular"  y="32">7</text><text text-decoration="none" x="37.833124999999995" fill="#4b4b4b" font-size="10pt" font-family="noto_regular"  y="32"></text></g></g><g id="j5L92I91ptS"><g><path d="M 940,-174 L 924.9960271012836,-174.08939837956268 Q 914.9962046040772,-174.1489804604688 914.9993286487244,-164.14898094845157 L 915,-162 L 914.9991579942134,-159.14901956387433 Q 914.9962046040772,-149.14902 904.9963823089777,-149.08940400861175 L 890,-149" fill="none" stroke="#1a1a1a" stroke-width="2" stroke-linecap="round" stroke-linejoin="round" stroke-dasharray="0 0"/><path d="M 890,-149 L 898.695652173913,-143.25 L 898.695652173913,-154.75 Z" fill="rgb(26,26,26)" stroke="#1a1a1a" stroke-width="2" stroke-linecap="round" stroke-linejoin="round"/></g></g><g id="c1V1mYx9nDZ"><g transform="translate(940.1234317830138 -118.29804000000001)"><rect x="0" y="0" width="149.8724421386134" height="60" fill="rgb(255,255,255)" stroke="#24afaf" stroke-width="2" stroke-linecap="round" stroke-linejoin="round" stroke-dasharray="0 0"/></g><g transform="translate(963.9546528523205, -106.30304000000001) rotate(0, 51.105, 18.005)" width="102.21" height="36.01"><text text-decoration="none" x="1.2221874999999969" fill="rgb(26, 26, 26)" font-size="10pt" font-family="noto_regular"  y="14">Select&#160;</text><text text-decoration="none" x="41.6909375" fill="rgb(26, 26, 26)" font-size="10pt" font-family="noto_regular"  y="14">extracted&#160;</text><text text-decoration="none" x="0.0034374999999968736" fill="rgb(26, 26, 26)" font-size="10pt" font-family="noto_regular"  y="32">features&#160;</text><text text-decoration="none" x="55.5190625" fill="rgb(26, 26, 26)" font-size="10pt" font-family="noto_regular"  y="32">dataset</text><text text-decoration="none" x="102.20656249999999" fill="#4b4b4b" font-size="10pt" font-family="noto_regular"  y="32"></text></g></g><g id="1zbRm6C8qVA"><g><path d="M 1015,-149 L 1014.9979052500335,-143.72352921196182 Q 1014.9977954655157,-143.44699272281383 1015,-134 Q 1015.0227875557383,-124.00643225495007 1015.0217145375639,-123.7236019660453 L 1015,-118" fill="none" stroke="#1a1a1a" stroke-width="2" stroke-linecap="round" stroke-linejoin="round" stroke-dasharray="0 0"/><path d="M 1015,-118 L 1020.75,-126.69565217391305 L 1009.25,-126.69565217391305 Z" fill="rgb(26,26,26)" stroke="#1a1a1a" stroke-width="2" stroke-linecap="round" stroke-linejoin="round"/></g></g><g id="Yo6nfV3PmGC"><g transform="translate(929.3210461991903 10)"><rect x="0" y="0" width="171.47720760161954" height="60" fill="rgb(255,255,255)" stroke="#24afaf" stroke-width="2" stroke-linecap="round" stroke-linejoin="round" stroke-dasharray="0 0"/></g><g transform="translate(948.03465, 21.995) rotate(0, 67.025, 18.005)" width="134.05" height="36.01"><text text-decoration="none" x="0.0015625000000056843" fill="rgb(26, 26, 26)" font-size="10pt" font-family="noto_regular"  y="14">Define&#160;</text><text text-decoration="none" x="44.517187500000006" fill="rgb(26, 26, 26)" font-size="10pt" font-family="noto_regular"  y="14">model&#160;</text><text text-decoration="none" x="87.6734375" fill="rgb(26, 26, 26)" font-size="10pt" font-family="noto_regular"  y="14">specific&#160;</text><text text-decoration="none" x="1.2359375000000057" fill="rgb(26, 26, 26)" font-size="10pt" font-family="noto_regular"  y="32">hyperparameter&#160;</text><text text-decoration="none" x="107.4546875" fill="rgb(26, 26, 26)" font-size="10pt" font-family="noto_regular"  y="32">grid</text><text text-decoration="none" x="132.8140625" fill="#4b4b4b" font-size="10pt" font-family="noto_regular"  y="32"></text></g></g><g id="rhgPfhuE4qf"><mask id="8f0f3" x="1001" y="-72" width="28" height="96" maskUnits="userSpaceOnUse"><rect x="1001" y="-72" width="28" height="96" fill="white" />undefined</mask><g mask="url(#8f0f3)"><path d="M 1015,-58 L 1015.0420306860798,-34.1490044729508 Q 1015.0423135502461,-33.98848860713737 1015,-24 Q 1015.0424628484633,-14.309550065924357 1015.0421824682818,-14.14903525574486 L 1015,10" fill="none" stroke="#1a1a1a" stroke-width="2" stroke-linecap="round" stroke-linejoin="round" stroke-dasharray="0 0"/><path d="M 1015,10 L 1020.75,1.3043478260869552 L 1009.25,1.3043478260869552 Z" fill="rgb(26,26,26)" stroke="#1a1a1a" stroke-width="2" stroke-linecap="round" stroke-linejoin="round"/></g>undefined</g><g id="NOjAH694GEG"><g transform="translate(950.201635751748 115.0000029975732)"><rect x="0" y="0" width="129.5437019605925" height="60" fill="rgb(255,255,255)" stroke="#24afaf" stroke-width="2" stroke-linecap="round" stroke-linejoin="round" stroke-dasharray="0 0"/></g><g transform="translate(977.7384867320442, 126.99500299757321) rotate(0, 37.235, 18.005)" width="74.47" height="36.01"><text text-decoration="none" x="0.0006249999999994316" fill="rgb(26, 26, 26)" font-size="10pt" font-family="noto_regular"  y="14">Standardize&#160;</text><text text-decoration="none" x="11.2115625" fill="rgb(26, 26, 26)" font-size="10pt" font-family="noto_regular"  y="32">features</text><text text-decoration="none" x="63.2584375" fill="#4b4b4b" font-size="10pt" font-family="noto_regular"  y="32"></text></g></g><g id="9SJG5iqn6Ra"><g><path d="M 1015,70 L 1015.0000010611817,70.00017790137755 Q 1015.0003568671018,70.05982684019587 1015,80 Q 1014.9810418649101,89.97348387045514 1014.9810619492866,89.99999713080378 L 1015,115" fill="none" stroke="#1a1a1a" stroke-width="2" stroke-linecap="round" stroke-linejoin="round" stroke-dasharray="0 0"/><path d="M 1015,115 L 1020.75,106.30434782608695 L 1009.25,106.30434782608695 Z" fill="rgb(26,26,26)" stroke="#1a1a1a" stroke-width="2" stroke-linecap="round" stroke-linejoin="round"/></g></g><g id="3cxu9ClVHB3"><g transform="translate(930.0001453087091 189.99999999999991)"><path d="M 84.9998996520089,0 L 0,34.99959513818154 L 84.9998996520089,69.99919027636308 L 169.9997993040178,34.99959513818154 L 84.9998996520089,0 Z" fill="rgb(255,255,255)" stroke="#4b4b4b" stroke-width="2" stroke-linecap="round" stroke-linejoin="round" stroke-dasharray="0 0"/></g><g transform="translate(961.355044960718, 215.99959513818146) rotate(0, 53.645, 9)" width="107.29" height="18"><text text-decoration="none" x="0.004375000000003126" fill="rgb(26, 26, 26)" font-size="10pt" font-family="noto_regular"  y="14">Feature&#160;</text><text text-decoration="none" x="51.473125" fill="rgb(26, 26, 26)" font-size="10pt" font-family="noto_regular"  y="14">selection</text><text text-decoration="none" x="107.28562500000001" fill="#4b4b4b" font-size="10pt" font-family="noto_regular"  y="14"></text></g></g><g id="7Li0hRwauwL"><g><path d="M 1015,175 Q 1014.9734867320442,182.50000149878656 1015,183 Q 1015.000044960718,182.50000149878656 1015,190" fill="none" stroke="#1a1a1a" stroke-width="2" stroke-linecap="round" stroke-linejoin="round" stroke-dasharray="0 0"/><path d="M 1015,190 L 1020.75,181.30434782608697 L 1009.25,181.30434782608697 Z" fill="rgb(26,26,26)" stroke="#1a1a1a" stroke-width="2" stroke-linecap="round" stroke-linejoin="round"/></g></g><g id="fbKkEm1L4wB"><g transform="translate(810 320)"><rect x="0" y="0" width="120" height="60" fill="rgb(255,255,255)" stroke="#24afaf" stroke-width="2" stroke-linecap="round" stroke-linejoin="round" stroke-dasharray="0 0"/></g><g transform="translate(831.185, 331.995) rotate(0, 38.815, 18.005)" width="77.63" height="36.01"><text text-decoration="none" x="3.4712499999999977" fill="rgb(26, 26, 26)" font-size="10pt" font-family="noto_regular"  y="14">PCA&#160;</text><text text-decoration="none" x="31.955624999999998" fill="rgb(26, 26, 26)" font-size="10pt" font-family="noto_regular"  y="14">feature&#160;</text><text text-decoration="none" x="13.994687499999998" fill="rgb(26, 26, 26)" font-size="10pt" font-family="noto_regular"  y="32">selector</text><text text-decoration="none" x="63.6353125" fill="#4b4b4b" font-size="10pt" font-family="noto_regular"  y="32"></text></g></g><g id="6fmD74AozcK"><mask id="a0fea" x="856" y="246" width="173" height="88" maskUnits="userSpaceOnUse"><rect x="856" y="246" width="173" height="88" fill="white" />undefinedundefinedundefinedundefinedundefined<rect x="931.563375977156" y="278" width="31.02" height="24" fill="black" /></mask><g mask="url(#a0fea)"><path d="M 1015,260 L 1015.000029973812,280.00000000001125 Q 1015.000044960718,290 1005.000044960718,290 L 943,290 L 880,290 Q 870,290 870,300 L 870,320" fill="none" stroke="#1a1a1a" stroke-width="2" stroke-linecap="round" stroke-linejoin="round" stroke-dasharray="0 0"/><path d="M 870,320 L 875.75,311.30434782608694 L 864.25,311.30434782608694 Z" fill="rgb(26,26,26)" stroke="#1a1a1a" stroke-width="2" stroke-linecap="round" stroke-linejoin="round"/></g>undefinedundefinedundefinedundefinedundefined<g transform="translate(934.563375977156, 281)" width="25.02" height="18"><rect x="-2.5" y="0" width="30.015625" height="20.5" fill="#1a1a1a" rx="5"/><text text-decoration="none" x="0.002187499999999787" fill="#FFFFFF" font-size="10pt" font-family="noto_regular"  y="14">PCA</text><text text-decoration="none" x="25.017812499999998" fill="#4b4b4b" font-size="10pt" font-family="noto_regular"  y="14"></text></g></g><g id="yJVPxF96sY0"><g transform="translate(950 320)"><rect x="0" y="0" width="120" height="60" fill="rgb(255,255,255)" stroke="#24afaf" stroke-width="2" stroke-linecap="round" stroke-linejoin="round" stroke-dasharray="0 0"/></g><g transform="translate(965.035, 331.995) rotate(0, 44.965, 18.005)" width="89.93" height="36.01"><text text-decoration="none" x="0.004062500000003411" fill="rgb(26, 26, 26)" font-size="10pt" font-family="noto_regular"  y="14">MRMR&#160;</text><text text-decoration="none" x="44.2540625" fill="rgb(26, 26, 26)" font-size="10pt" font-family="noto_regular"  y="14">feature&#160;</text><text text-decoration="none" x="20.144687500000003" fill="rgb(26, 26, 26)" font-size="10pt" font-family="noto_regular"  y="32">selector</text><text text-decoration="none" x="69.7853125" fill="#4b4b4b" font-size="10pt" font-family="noto_regular"  y="32"></text></g></g><g id="S3ayl88Azag"><mask id="857f8" x="996" y="246" width="33" height="88" maskUnits="userSpaceOnUse"><rect x="996" y="246" width="33" height="88" fill="white" /><rect x="986.605" y="278" width="46.79" height="24" fill="black" />undefinedundefined</mask><g mask="url(#857f8)"><path d="M 1015,260 L 1015.0000299736098,279.9995951381927 Q 1015.0000329710989,281.99964013988586 1013,290 Q 1010,296.99959511086263 1010,299.99959513818146 L 1010,320" fill="none" stroke="#1a1a1a" stroke-width="2" stroke-linecap="round" stroke-linejoin="round" stroke-dasharray="0 0"/><path d="M 1010,320 L 1015.75,311.30434782608694 L 1004.25,311.30434782608694 Z" fill="rgb(26,26,26)" stroke="#1a1a1a" stroke-width="2" stroke-linecap="round" stroke-linejoin="round"/></g><g transform="translate(989.605, 281)" width="40.79" height="18"><rect x="-2.5" y="0" width="45.78125" height="20.5" fill="#1a1a1a" rx="5"/><text text-decoration="none" x="0.004374999999999574" fill="#FFFFFF" font-size="10pt" font-family="noto_regular"  y="14">MRMR</text><text text-decoration="none" x="40.785624999999996" fill="#4b4b4b" font-size="10pt" font-family="noto_regular"  y="14"></text></g>undefinedundefined</g><g id="vkLNLjmgDZH"><g transform="translate(1090 320)"><rect x="0" y="0" width="115.53834187882133" height="60" fill="rgb(255,255,255)" stroke="#24afaf" stroke-width="2" stroke-linecap="round" stroke-linejoin="round" stroke-dasharray="0 0"/></g><g transform="translate(1111.3291709394107, 331.995) rotate(0, 36.44, 18.005)" width="72.88" height="36.01"><text text-decoration="none" x="0.0024999999999977263" fill="rgb(26, 26, 26)" font-size="10pt" font-family="noto_regular"  y="14">Preselected&#160;</text><text text-decoration="none" x="10.416562499999998" fill="rgb(26, 26, 26)" font-size="10pt" font-family="noto_regular"  y="32">features</text><text text-decoration="none" x="62.4634375" fill="#4b4b4b" font-size="10pt" font-family="noto_regular"  y="32"></text></g></g><g id="TMOkSb8I358"><g transform="translate(867.5860116135898 440.00000000000006)"><rect x="0" y="0" width="79.99998049461249" height="50.026714191226574" fill="rgb(255,255,255)" stroke="#24afaf" stroke-width="2" stroke-linecap="round" stroke-linejoin="round" stroke-dasharray="0 0"/></g><g transform="translate(891.546001860896, 456.01335709561334) rotate(0, 16.04, 9)" width="32.08" height="18"><text text-decoration="none" x="0.0009374999999991473" fill="rgb(26, 26, 26)" font-size="10pt" font-family="noto_regular"  y="14">Train</text><text text-decoration="none" x="32.0790625" fill="#4b4b4b" font-size="10pt" font-family="noto_regular"  y="14"></text></g></g><g id="xr4W9Y5SK5t"><g><path d="M 1148,380 L 1147.846111682107,400.0002959982751 Q 1147.7691709394107,410 1137.7691709394107,410 L 1028,410 L 917.586001860896,410 Q 907.586001860896,410 907.7239881022911,419.9990479445388 L 908,440" fill="none" stroke="#1a1a1a" stroke-width="2" stroke-linecap="round" stroke-linejoin="round" stroke-dasharray="0 0"/><path d="M 908,440 L 913.75,431.30434782608694 L 902.25,431.30434782608694 Z" fill="rgb(26,26,26)" stroke="#1a1a1a" stroke-width="2" stroke-linecap="round" stroke-linejoin="round"/></g></g><g id="lByLTdGCmOh"><g transform="translate(989.9999999999999 439.99999999999994)"><rect x="0" y="0" width="71.89627488397596" height="50.02679066899529" fill="rgb(255,255,255)" stroke="#24afaf" stroke-width="2" stroke-linecap="round" stroke-linejoin="round" stroke-dasharray="0 0"/></g><g transform="translate(1000.768137441988, 456.01339533449755) rotate(0, 25.18, 9)" width="50.36" height="18"><text text-decoration="none" x="0.0003124999999997158" fill="rgb(26, 26, 26)" font-size="10pt" font-family="noto_regular"  y="14">Validate</text><text text-decoration="none" x="50.3596875" fill="#4b4b4b" font-size="10pt" font-family="noto_regular"  y="14"></text></g></g><g id="8YODgaQmPPW"><g><path d="M 948,465 L 958.7929981173888,465.0069332532663 Q 959.0004325115107,465.0070665058783 969,465 Q 978.5855571978897,465.0072098953642 978.7929940592138,465.007078868551 L 990,465" fill="none" stroke="#1a1a1a" stroke-width="2" stroke-linecap="round" stroke-linejoin="round" stroke-dasharray="0 0"/><path d="M 990,465 L 981.304347826087,459.25 L 981.304347826087,470.75 Z" fill="rgb(26,26,26)" stroke="#1a1a1a" stroke-width="2" stroke-linecap="round" stroke-linejoin="round"/></g></g><g id="3Zz3otuUbhg"><g><path d="M 870,380 L 870,400 Q 870,410 880,410 L 889,410 L 897.586001860896,410 Q 907.586001860896,410 907.7239881022911,419.9990479445388 L 908,440" fill="none" stroke="#1a1a1a" stroke-width="2" stroke-linecap="round" stroke-linejoin="round" stroke-dasharray="0 0"/><path d="M 908,440 L 913.75,431.30434782608694 L 902.25,431.30434782608694 Z" fill="rgb(26,26,26)" stroke="#1a1a1a" stroke-width="2" stroke-linecap="round" stroke-linejoin="round"/></g></g><g id="K8w5Rnla4hd"><g><path d="M 1010,380 L 1010,400 Q 1010,410 1000,410 L 959,410 L 917.586001860896,410 Q 907.586001860896,410 907.7239881022911,419.9990479445388 L 908,440" fill="none" stroke="#1a1a1a" stroke-width="2" stroke-linecap="round" stroke-linejoin="round" stroke-dasharray="0 0"/><path d="M 908,440 L 913.75,431.30434782608694 L 902.25,431.30434782608694 Z" fill="rgb(26,26,26)" stroke="#1a1a1a" stroke-width="2" stroke-linecap="round" stroke-linejoin="round"/></g></g><g id="0HjZ3W9IJ1P"><mask id="6df0b" x="1002" y="66" width="292" height="412" maskUnits="userSpaceOnUse"><rect x="1002" y="66" width="292" height="412" fill="white" />undefinedundefinedundefinedundefinedundefinedundefinedundefinedundefinedundefinedundefinedundefinedundefinedundefinedundefinedundefinedundefinedundefinedundefinedundefinedundefinedundefinedundefinedundefinedundefinedundefinedundefinedundefinedundefinedundefinedundefinedundefined</mask><g mask="url(#6df0b)"><path d="M 1228,464 L 1270.000329003685,464.34070522032215 Q 1280,464.42182220656406 1280,454.42182220656406 L 1280,272 L 1280,89.50000388818948 Q 1280,79.50000388818948 1270.000017934705,79.518943100882 L 1016,80" fill="none" stroke="#1a1a1a" stroke-width="2" stroke-linecap="round" stroke-linejoin="round" stroke-dasharray="0 0"/><path d="M 1016,80 L 1024.695652173913,85.75 L 1024.695652173913,74.25 Z" fill="rgb(26,26,26)" stroke="#1a1a1a" stroke-width="2" stroke-linecap="round" stroke-linejoin="round"/></g>undefinedundefinedundefinedundefinedundefinedundefinedundefinedundefinedundefinedundefinedundefinedundefinedundefinedundefinedundefinedundefinedundefinedundefinedundefinedundefinedundefinedundefinedundefinedundefinedundefinedundefinedundefinedundefinedundefinedundefinedundefined</g><g id="gkHjhXQ31Zw"><g transform="translate(1219.9999999999995 50)"><rect x="0" y="0" width="120" height="40" fill="rgba(255,255,255,0.01)" stroke="rgba(255,255,255,0.01)"  stroke-dasharray="0 0"/></g><g transform="translate(1229.9999999999995, 60) rotate(0, 0, 0)" width="41.51" height="18"><text text-decoration="none" x="0" fill="#4b4b4b" font-size="10pt" font-family="noto_regular"  y="14">5&#160;</text><text text-decoration="none" x="10.8125" fill="#4b4b4b" font-size="10pt" font-family="noto_regular"  y="14">folds</text><text text-decoration="none" x="41.5" fill="#4b4b4b" font-size="10pt" font-family="noto_regular"  y="14"></text></g></g><g id="LvCtjkxMf7i"><g transform="translate(1200 569.9999999999999)"><rect x="0" y="0" width="100.0000010168713" height="50.02679066899529" fill="rgb(255,255,255)" stroke="#24afaf" stroke-width="2" stroke-linecap="round" stroke-linejoin="round" stroke-dasharray="0 0"/></g><g transform="translate(1214.7250005084356, 586.0133953344975) rotate(0, 35.275, 9)" width="70.55" height="18"><text text-decoration="none" x="0.001562499999998579" fill="rgb(26, 26, 26)" font-size="10pt" font-family="noto_regular"  y="14">Best&#160;</text><text text-decoration="none" x="30.8609375" fill="rgb(26, 26, 26)" font-size="10pt" font-family="noto_regular"  y="14">model</text><text text-decoration="none" x="70.5484375" fill="#4b4b4b" font-size="10pt" font-family="noto_regular"  y="14"></text></g></g><g id="Q8SMeaSac8z"><g><path d="M 1249,465 Q 1250.000000464853,474.0064078563071 1250.0000004600104,475.00642903073685 L 1250,570" fill="none" stroke="#1a1a1a" stroke-width="2" stroke-linecap="round" stroke-linejoin="round" stroke-dasharray="0 0"/><path d="M 1250,570 L 1255.75,561.304347826087 L 1244.25,561.304347826087 Z" fill="rgb(26,26,26)" stroke="#1a1a1a" stroke-width="2" stroke-linecap="round" stroke-linejoin="round"/></g></g><g id="AHJPDucxfKM"><mask id="81722" x="678" y="-50" width="349" height="28" maskUnits="userSpaceOnUse"><rect x="678" y="-50" width="349" height="28" fill="white" />undefinedundefinedundefined</mask><g mask="url(#81722)"><path d="M 692,-36 L 1013,-36" fill="none" stroke="#1a1a1a" stroke-width="2" stroke-linecap="round" stroke-linejoin="round" stroke-dasharray="0 0"/><path d="M 1013,-36 L 1004.2984160382302,-41.74101935948227 L 1004.3102888825864,-30.2410254883723 Z" fill="rgb(26,26,26)" stroke="#1a1a1a" stroke-width="2" stroke-linecap="round" stroke-linejoin="round"/></g>undefinedundefinedundefined</g><g id="yd4RFvViZQ5"><g><path d="M 691,594 L 691,-36" fill="none" stroke="#1a1a1a" stroke-width="2" stroke-linecap="round" stroke-linejoin="round" stroke-dasharray="0 0"/></g></g><g id="dl3EzUEA9oW"><g><path d="M 691,594 L 1068,595" fill="none" stroke="#1a1a1a" stroke-width="2" stroke-linecap="round" stroke-linejoin="round" stroke-dasharray="0 0"/></g></g><g id="lJ2riz1oKHn"><g transform="translate(683.66904377113 -66.36178896145293)"><rect x="0" y="0" width="120" height="40" fill="rgba(255,255,255,0.01)" stroke="rgba(255,255,255,0.01)"  stroke-dasharray="0 0"/></g><g transform="translate(693.66904377113, -56.36178896145293) rotate(0, 0, 0)" width="41.51" height="18"><text text-decoration="none" x="0" fill="#4b4b4b" font-size="10pt" font-family="noto_regular"  y="14">7&#160;</text><text text-decoration="none" x="10.8125" fill="#4b4b4b" font-size="10pt" font-family="noto_regular"  y="14">folds</text><text text-decoration="none" x="41.5" fill="#4b4b4b" font-size="10pt" font-family="noto_regular"  y="14"></text></g></g><g id="RqqX9NxSieE"><g><path d="M 1018,595 L 1019,660" fill="none" stroke="#1a1a1a" stroke-width="2" stroke-linecap="round" stroke-linejoin="round" stroke-dasharray="0 0"/><path d="M 1019,660 L 1024.5813012058252,651.1951181961634 L 1013.0834382270649,651.4168092461648 Z" fill="rgb(26,26,26)" stroke="#1a1a1a" stroke-width="2" stroke-linecap="round" stroke-linejoin="round"/></g></g><g id="8pBQSHI1hcG"><g transform="translate(1140 663.8896801550378)"><rect x="0" y="0" width="189.15329524352694" height="80" fill="white" stroke="#1a1a1a" stroke-width="2" stroke-linecap="round" stroke-linejoin="round" stroke-dasharray="0 0"/></g><g transform="translate(1155.7466476217635, 676.8846801550378) rotate(0, 78.83, 27.005)" width="157.66" height="54.01"><text text-decoration="none" x="0.0018749999999982947" fill="#4b4b4b" font-size="10pt" font-family="noto_regular"  y="14">Compute&#160;</text><text text-decoration="none" x="61.205" fill="#4b4b4b" font-size="10pt" font-family="noto_regular"  y="14">mean&#160;</text><text text-decoration="none" x="100.376875" fill="#4b4b4b" font-size="10pt" font-family="noto_regular"  y="14">ROC&#160;</text><text text-decoration="none" x="130.97062499999998" fill="#4b4b4b" font-size="10pt" font-family="noto_regular"  y="14">AUC&#160;</text><text text-decoration="none" x="15.111249999999998" fill="#4b4b4b" font-size="10pt" font-family="noto_regular"  y="32">scores&#160;</text><text text-decoration="none" x="58.845625" fill="#4b4b4b" font-size="10pt" font-family="noto_regular"  y="32">and&#160;</text><text text-decoration="none" x="86.23625" fill="#4b4b4b" font-size="10pt" font-family="noto_regular"  y="32">standard&#160;</text><text text-decoration="none" x="49.845625" fill="#4b4b4b" font-size="10pt" font-family="noto_regular"  y="50">deviation</text><text text-decoration="none" x="107.814375" fill="#4b4b4b" font-size="10pt" font-family="noto_regular"  y="50"></text></g></g><g id="L0iFh8qH7A5"><g><path d="M 851,616 L 852,662" fill="none" stroke="#2D679C" stroke-width="2" stroke-linecap="round" stroke-linejoin="round" stroke-dasharray="0 0"/><path d="M 852,662 L 857.562415294127,653.1831750144771 L 846.0650539192872,653.4295109971071 Z" fill="rgb(45,103,156)" stroke="#2D679C" stroke-width="2" stroke-linecap="round" stroke-linejoin="round"/></g></g><g id="4Vpxc4waCLu"><g transform="translate(780 660)"><rect x="0" y="0" width="139.99690688620157" height="60" fill="rgb(255,255,255)" stroke="#436686" stroke-width="2" stroke-linecap="round" stroke-linejoin="round" stroke-dasharray="0 0"/></g><g transform="translate(800.6284534431007, 671.995) rotate(0, 49.37, 18.005)" width="98.74" height="36.01"><text text-decoration="none" x="0.002812499999997442" fill="rgb(94, 156, 211)" font-size="10pt" font-family="noto_regular"  y="14">Extract&#160;</text><text text-decoration="none" x="46.9403125" fill="rgb(94, 156, 211)" font-size="10pt" font-family="noto_regular"  y="14">selected&#160;</text><text text-decoration="none" x="23.346562499999997" fill="rgb(94, 156, 211)" font-size="10pt" font-family="noto_regular"  y="32">features</text><text text-decoration="none" x="75.3934375" fill="#4b4b4b" font-size="10pt" font-family="noto_regular"  y="32"></text></g></g><g id="O0qtPxxJQjU"><g transform="translate(1099.9999919836935 434.42182220656406)"><rect x="0" y="0" width="128.33988202882873" height="60" fill="rgb(255,255,255)" stroke="#24afaf" stroke-width="2" stroke-linecap="round" stroke-linejoin="round" stroke-dasharray="0 0"/></g><g transform="translate(1109.5949329981079, 446.41682220656406) rotate(0, 54.575, 18.005)" width="109.15" height="36.01"><text text-decoration="none" x="40.8796875" fill="rgb(26, 26, 26)" font-size="10pt" font-family="noto_regular"  y="14">Best&#160;</text><text text-decoration="none" x="0.004687500000002842" fill="rgb(26, 26, 26)" font-size="10pt" font-family="noto_regular"  y="32">hyperparameters</text><text text-decoration="none" x="109.1453125" fill="#4b4b4b" font-size="10pt" font-family="noto_regular"  y="32"></text></g></g><g id="WigEg2aEJPD"><g><path d="M 1062,465 L 1070.9481359327074,465.0063258618252 Q 1071.0017043397952,465.00636373187365 1081,465 Q 1090.3653259793277,464.21331870243847 1090.9456832753106,464.2004691690693 L 1100,464" fill="none" stroke="#1a1a1a" stroke-width="2" stroke-linecap="round" stroke-linejoin="round" stroke-dasharray="0 0"/><path d="M 1100,464 L 1091.304347826087,458.25 L 1091.304347826087,469.75 Z" fill="rgb(26,26,26)" stroke="#1a1a1a" stroke-width="2" stroke-linecap="round" stroke-linejoin="round"/></g></g><g id="crLi1zB79eO"><g><path d="M 1018,617 L 852,616" fill="none" stroke="#2D679C" stroke-width="2" stroke-linecap="round" stroke-linejoin="round" stroke-dasharray="0 0"/></g></g><g id="M1cGt38MCA1"><g transform="translate(1070 569.9999999999999)"><rect x="0" y="0" width="58.5187032148826" height="50.02679066899529" fill="rgb(255,255,255)" stroke="#24afaf" stroke-width="2" stroke-linecap="round" stroke-linejoin="round" stroke-dasharray="0 0"/></g><g transform="translate(1086.1843516074412, 586.0133953344975) rotate(0, 13.075, 9)" width="26.15" height="18"><text text-decoration="none" x="0.0046874999999992895" fill="rgb(26, 26, 26)" font-size="10pt" font-family="noto_regular"  y="14">Test</text><text text-decoration="none" x="26.1453125" fill="#4b4b4b" font-size="10pt" font-family="noto_regular"  y="14"></text></g></g><g id="vUTT6GVrBbR"><g><path d="M 1200,595 L 1129,595" fill="none" stroke="#1a1a1a" stroke-width="2" stroke-linecap="round" stroke-linejoin="round" stroke-dasharray="0 0"/><path d="M 1129,595 L 1137.695652173913,600.75 L 1137.695652173913,589.25 Z" fill="rgb(26,26,26)" stroke="#1a1a1a" stroke-width="2" stroke-linecap="round" stroke-linejoin="round"/></g></g><g id="ftHCa1OahWx"><g transform="translate(960 660)"><rect x="0" y="0" width="133.7262531743867" height="59.99999999999999" fill="rgb(255,255,255)" stroke="#24afaf" stroke-width="2" stroke-linecap="round" stroke-linejoin="round" stroke-dasharray="0 0"/></g><g transform="translate(978.5781265871934, 671.995) rotate(0, 48.285, 18.005)" width="96.57" height="36.01"><text text-decoration="none" x="0.0037499999999965894" fill="rgb(75, 75, 75)" font-size="10pt" font-family="noto_regular"  y="14">Aggregate&#160;</text><text text-decoration="none" x="69.44125" fill="rgb(75, 75, 75)" font-size="10pt" font-family="noto_regular"  y="14">ROC&#160;</text><text text-decoration="none" x="13.074062499999997" fill="rgb(75, 75, 75)" font-size="10pt" font-family="noto_regular"  y="32">AUC&#160;</text><text text-decoration="none" x="43.2303125" fill="rgb(75, 75, 75)" font-size="10pt" font-family="noto_regular"  y="32">scores</text><text text-decoration="none" x="83.4959375" fill="#4b4b4b" font-size="10pt" font-family="noto_regular"  y="32"></text></g></g><g id="Sa0X2hnIcjx"><g><path d="M 1094,690 L 1106.8631265871934,690 Q 1113.864464625821,690 1117,697 Q 1119.9720516318553,703.9045039440091 1126.86301291335,703.9373610101585 L 1140,704" fill="none" stroke="#1a1a1a" stroke-width="2" stroke-linecap="round" stroke-linejoin="round" stroke-dasharray="0 0"/><path d="M 1140,704 L 1131.304347826087,698.25 L 1131.304347826087,709.75 Z" fill="rgb(26,26,26)" stroke="#1a1a1a" stroke-width="2" stroke-linecap="round" stroke-linejoin="round"/></g></g><g id="FyC3ey8v3fT"><g transform="translate(650 -209.99999999999997)"><rect x="0" y="0" width="160" height="40" fill="rgba(255,255,255,0.01)" stroke="rgba(255,255,255,0.01)"  stroke-dasharray="0 0"/></g><g transform="translate(660, -199.99999999999997) rotate(0, 0, 0)" width="139.47" height="18"><text text-decoration="none" x="0" fill="#4b4b4b" font-weight="bold" font-size="10pt" font-family="noto_regular"  y="14">Workflow:&#160;</text><text text-decoration="none" x="67.0625" fill="#4b4b4b" font-weight="bold" font-size="10pt" font-family="noto_regular"  y="14">ML&#160;</text><text text-decoration="none" x="89.609375" fill="#4b4b4b" font-weight="bold" font-size="10pt" font-family="noto_regular"  y="14">Pipeline</text><text text-decoration="none" x="139.46875" fill="#4b4b4b" font-size="10pt" font-family="noto_regular"  y="14"></text></g></g></svg>