<svg xmlns="http://www.w3.org/2000/svg" xmlns:svg="http://www.w3.org/2000/svg" xmlns:xlink="http://www.w3.org/1999/xlink" version="1.0" height="1103.4219394239847pt" width="967.4869250246361pt" viewBox="277.49999922983756 183.56683007868853 975.4869250246361 1109.4219394239847" ><defs><style type="text/css">
            @font-face {
                font-family: 'noto_regular';
                src: url('https://app.creately.com/d/assets/fonts/noto/noto-regular.woff') format('woff'),
                     url('https://app.creately.com/d/assets/fonts/noto/noto-regular.woff2') format('woff2');
                font-weight: normal;
                font-style: normal;
            }
        p {
            margin: 0;
        }
        </style></defs><defs>
        <style>
            span{ display: inline-block; }
            
        </style>
        
        </defs><g id="sKNSbOlDNcS"><g transform="translate(282.49999922983756 186.56683007868853)"><rect x="0" y="0" width="967.4869250246361" height="1103.4219394239847" fill="rgba(255,255,255,0.011764705882352941)" stroke="#D7D7D7" stroke-width="2" stroke-linecap="round" stroke-linejoin="round" stroke-dasharray="0 0"/></g><g transform="translate(282.49999922983756, 167.56683007868853) rotate(0, 0, 18)" width="967.484375" height="18"><text text-decoration="none" x="0" fill="#4b4b4b" font-size="10pt" font-family="noto_regular"  y="14"></text><text text-decoration="none" x="483.7421875" fill="#4b4b4b" font-size="10pt" font-family="noto_regular"  y="32"></text></g></g><g id="YdJnZ0YTPZx"><g transform="translate(282.49999942822524 186.5668303594321)"><rect x="0" y="0" width="967.4869188372662" height="1103.4219337887523" fill="white" stroke="#1a1a1a" stroke-width="2" stroke-linecap="round" stroke-linejoin="round" stroke-dasharray="0 0"/></g><g transform="translate(292.5012713468584, 729.2777972538082) rotate(0, 473.7421875, 9)" width="947.484375" height="18"><text text-decoration="none" x="473.7421875" fill="#4b4b4b" font-size="10pt" font-family="noto_regular"  y="14"></text><text text-decoration="none" x="473.7421875" fill="#4b4b4b" font-size="10pt" font-family="noto_regular"  y="32"></text></g></g><g id="ocwv3X2lFt3"><g transform="translate(660.0025503700106 210)"><path d="M 20,40 L 20,40 L 20,40 A 20 20 0 0 1 0 20.000000000000004 L 0,20 L 0,20.000000000000004 A 20 20 0 0 1 20 0 L 169.9974495890158,0 L 169.9974495890158,0 L 169.9974495890158,0 A 20 20 0 0 1 189.9974495890158 20 L 189.9974495890158,20 L 189.9974495890158,20 A 20 20 0 0 1 169.9974495890158 40 L 20,40 Z" fill="rgb(255,255,255)" stroke="#f77474" stroke-width="2" stroke-linecap="round" stroke-linejoin="round" stroke-dasharray="0 0"/></g><g transform="translate(689.6012751645185, 221) rotate(0, 65.4, 9)" width="130.8" height="18"><text text-decoration="none" x="0.0015625000000056843" fill="#4b4b4b" font-size="10pt" font-family="noto_regular"  y="14">PPMI&#160;</text><text text-decoration="none" x="36.220312500000006" fill="#4b4b4b" font-size="10pt" font-family="noto_regular"  y="14">MRI&#160;</text><text text-decoration="none" x="64.5953125" fill="#4b4b4b" font-size="10pt" font-family="noto_regular"  y="14">availability</text><text text-decoration="none" x="130.7984375" fill="#4b4b4b" font-size="10pt" font-family="noto_regular"  y="14"></text></g></g><g id="fs4Hc9om07o"><g transform="translate(282.49999999999983 190.00000000000003)"><rect x="0" y="0" width="200" height="40" fill="rgba(255,255,255,0.01)" stroke="rgba(255,255,255,0.01)"  stroke-dasharray="0 0"/></g><g transform="translate(292.49999999999983, 200.00000000000003) rotate(0, 0, 0)" width="161.3" height="18"><text text-decoration="none" x="0" fill="#4b4b4b" font-weight="bold" font-size="10pt" font-family="noto_regular"  y="14">Workflow:&#160;</text><text text-decoration="none" x="67.0625" fill="#4b4b4b" font-weight="bold" font-size="10pt" font-family="noto_regular"  y="14">Create&#160;</text><text text-decoration="none" x="111.796875" fill="#4b4b4b" font-weight="bold" font-size="10pt" font-family="noto_regular"  y="14">Cohorts</text><text text-decoration="none" x="161.296875" fill="#4b4b4b" font-size="10pt" font-family="noto_regular"  y="14"></text></g></g><g id="3PlGQdP0UBI"><g transform="translate(580 300)"><rect x="0" y="0" width="349.89991822590673" height="40.56603775143319" fill="rgb(255,255,255)" stroke="#24afaf" stroke-width="2" stroke-linecap="round" stroke-linejoin="round" stroke-dasharray="0 0"/></g><g transform="translate(607.0199591129533, 311.2830188757166) rotate(0, 147.93, 9)" width="295.86" height="18"><text text-decoration="none" x="0.0003125000000068212" fill="rgb(26, 26, 26)" font-size="10pt" font-family="noto_regular"  y="14">MRI&#160;</text><text text-decoration="none" x="28.375312500000007" fill="rgb(26, 26, 26)" font-size="10pt" font-family="noto_regular"  y="14">scan:&#160;</text><text text-decoration="none" x="64.2815625" fill="rgb(26, 26, 26)" font-size="10pt" font-family="noto_regular"  y="14">field&#160;</text><text text-decoration="none" x="94.9378125" fill="rgb(26, 26, 26)" font-size="10pt" font-family="noto_regular"  y="14">strength=3.0,&#160;</text><text text-decoration="none" x="181.0628125" fill="rgb(26, 26, 26)" font-size="10pt" font-family="noto_regular"  y="14">slice&#160;</text><text text-decoration="none" x="211.7190625" fill="rgb(26, 26, 26)" font-size="10pt" font-family="noto_regular"  y="14">thickness=1.0</text><text text-decoration="none" x="295.8596875" fill="#4b4b4b" font-size="10pt" font-family="noto_regular"  y="14"></text></g></g><g id="eLpXU9jGA5W"><g><path d="M 755,250 L 755.0007650987118,265.00000001300833 Q 755.0007651637536,265.00127517752514 755,275 Q 754.9698752642595,284.9499391805358 754.969975427674,284.9999799673372 L 755,300" fill="none" stroke="#1a1a1a" stroke-width="2" stroke-linecap="round" stroke-linejoin="round" stroke-dasharray="0 0"/><path d="M 755,300 L 760.75,291.30434782608694 L 749.25,291.30434782608694 Z" fill="rgb(26,26,26)" stroke="#1a1a1a" stroke-width="2" stroke-linecap="round" stroke-linejoin="round"/></g></g><g id="0kTPCc7FWpy"><g transform="translate(619.9894405309068 379.99999461498385)"><rect x="0" y="0" width="270.10546299309243" height="60" fill="rgb(255,255,255)" stroke="#24afaf" stroke-width="2" stroke-linecap="round" stroke-linejoin="round" stroke-dasharray="0 0"/></g><g transform="translate(650.072172027453, 400.99999461498385) rotate(0, 104.97, 9)" width="209.94" height="18"><text text-decoration="none" x="0.0012499999999988631" fill="rgb(26, 26, 26)" font-size="10pt" font-family="noto_regular"  y="14">Has&#160;</text><text text-decoration="none" x="27.22" fill="rgb(26, 26, 26)" font-size="10pt" font-family="noto_regular"  y="14">visits:&#160;&#160;</text><text text-decoration="none" x="69.31375" fill="rgb(26, 26, 26)" font-size="10pt" font-family="noto_regular"  y="14">V08,&#160;</text><text text-decoration="none" x="98.798125" fill="rgb(26, 26, 26)" font-size="10pt" font-family="noto_regular"  y="14">V10,&#160;</text><text text-decoration="none" x="128.2825" fill="rgb(26, 26, 26)" font-size="10pt" font-family="noto_regular"  y="14">V12,&#160;</text><text text-decoration="none" x="157.766875" fill="rgb(26, 26, 26)" font-size="10pt" font-family="noto_regular"  y="14">V13,&#160;</text><text text-decoration="none" x="187.25125" fill="rgb(26, 26, 26)" font-size="10pt" font-family="noto_regular"  y="14">V14</text><text text-decoration="none" x="209.93875" fill="#4b4b4b" font-size="10pt" font-family="noto_regular"  y="14"></text></g></g><g id="wkEx8Z6HfHt"><g><path d="M 755,341 L 754.9759097827417,350.28304985512835 Q 754.9751639447343,350.5704549595716 755,360 Q 755.0213954118428,369.9968530199716 755.0207833955092,370.2829933095035 L 755,380" fill="none" stroke="#1a1a1a" stroke-width="2" stroke-linecap="round" stroke-linejoin="round" stroke-dasharray="0 0"/><path d="M 755,380 L 760.75,371.30434782608694 L 749.25,371.30434782608694 Z" fill="rgb(26,26,26)" stroke="#1a1a1a" stroke-width="2" stroke-linecap="round" stroke-linejoin="round"/></g></g><g id="h4h7gcflTrz"><g transform="translate(669.9999981842722 490)"><rect x="0" y="0" width="170.000361657869" height="42.50955250392688" fill="rgb(255,255,255)" stroke="#24afaf" stroke-width="2" stroke-linecap="round" stroke-linejoin="round" stroke-dasharray="0 0"/></g><g transform="translate(730.8801790132067, 502.25477625196345) rotate(0, 24.12, 9)" width="48.24" height="18"><text text-decoration="none" x="0.0028125000000009948" fill="#4b4b4b" font-size="10pt" font-family="noto_regular"  y="14">with&#160;</text><text text-decoration="none" x="30.4403125" fill="#4b4b4b" font-size="10pt" font-family="noto_regular"  y="14">PD</text><text text-decoration="none" x="48.237187500000005" fill="#4b4b4b" font-size="10pt" font-family="noto_regular"  y="14"></text></g></g><g id="K8kePVDUvmi"><g><path d="M 755,440 L 755.0253032386556,455.0000115353038 Q 755.0253743777582,455.0421835028412 755,465 Q 755.0001074092137,474.9998182737813 755.0001074079318,474.99999730723556 L 755,490" fill="none" stroke="#1a1a1a" stroke-width="2" stroke-linecap="round" stroke-linejoin="round" stroke-dasharray="0 0"/><path d="M 755,490 L 760.75,481.30434782608694 L 749.25,481.30434782608694 Z" fill="rgb(26,26,26)" stroke="#1a1a1a" stroke-width="2" stroke-linecap="round" stroke-linejoin="round"/></g></g><g id="9E77O50L6XI"><g transform="translate(669.9999981842722 582.509567007752)"><rect x="0" y="0" width="170.000361657869" height="50.11452689532953" fill="rgb(255,255,255)" stroke="#24afaf" stroke-width="2" stroke-linecap="round" stroke-linejoin="round" stroke-dasharray="0 0"/></g><g transform="translate(711.2801790132066, 598.5668304554167) rotate(0, 43.72, 9)" width="87.44" height="18"><text text-decoration="none" x="0.0012499999999988631" fill="#4b4b4b" font-size="10pt" font-family="noto_regular"  y="14">Hoehn&#160;</text><text text-decoration="none" x="45.423125" fill="#4b4b4b" font-size="10pt" font-family="noto_regular"  y="14">&#x26;&#160;</text><text text-decoration="none" x="58.6575" fill="#4b4b4b" font-size="10pt" font-family="noto_regular"  y="14">Yahr</text><text text-decoration="none" x="87.43875" fill="#4b4b4b" font-size="10pt" font-family="noto_regular"  y="14"></text></g></g><g id="XDixlC4iDYd"><g><path d="M 755,533 L 755,583" fill="none" stroke="#1a1a1a" stroke-width="2" stroke-linecap="round" stroke-linejoin="round" stroke-dasharray="0 0"/><path d="M 755,583 L 760.75,574.304347826087 L 749.25,574.304347826087 Z" fill="rgb(26,26,26)" stroke="#1a1a1a" stroke-width="2" stroke-linecap="round" stroke-linejoin="round"/></g></g><g id="Yz5O3ksMzg9"><g transform="translate(660.0000052300462 780.0000000000001)"><rect x="0" y="0" width="189.09833736750716" height="39.99725001903302" fill="rgb(255,255,255)" stroke="#24afaf" stroke-width="2" stroke-linecap="round" stroke-linejoin="round" stroke-dasharray="0 0"/></g><g transform="translate(675.8191739137998, 790.9986250095167) rotate(0, 78.73, 9)" width="157.46" height="18"><text text-decoration="none" x="0.003437500000003979" fill="#4b4b4b" font-size="10pt" font-family="noto_regular"  y="14">Extract&#160;</text><text text-decoration="none" x="46.940937500000004" fill="#4b4b4b" font-size="10pt" font-family="noto_regular"  y="14">radiomic&#160;</text><text text-decoration="none" x="105.4096875" fill="#4b4b4b" font-size="10pt" font-family="noto_regular"  y="14">features</text><text text-decoration="none" x="157.45656250000002" fill="#4b4b4b" font-size="10pt" font-family="noto_regular"  y="14"></text></g></g><g id="FZdS1H00IVg"><g transform="translate(364.7813011324075 1044.0478309294422)"><path d="M 123.48156462963254,0 L 0,39.995069142980356 L 123.48156462963254,79.99013828596071 L 246.9631292592651,39.995069142980356 L 123.48156462963254,0 Z" fill="rgb(255,255,255)" stroke="#4b4b4b" stroke-width="2" stroke-linecap="round" stroke-linejoin="round" stroke-dasharray="0 0"/></g><g transform="translate(411.6878657620401, 1075.0429000724225) rotate(0, 76.575, 9)" width="153.15" height="18"><text text-decoration="none" x="0.004687500000002842" fill="#4b4b4b" font-size="10pt" font-family="noto_regular"  y="14">Match&#160;</text><text text-decoration="none" x="42.5046875" fill="#4b4b4b" font-size="10pt" font-family="noto_regular"  y="14">by&#160;</text><text text-decoration="none" x="60.9734375" fill="#4b4b4b" font-size="10pt" font-family="noto_regular"  y="14">age,&#160;</text><text text-decoration="none" x="90.9734375" fill="#4b4b4b" font-size="10pt" font-family="noto_regular"  y="14">sex,&#160;</text><text text-decoration="none" x="118.7390625" fill="#4b4b4b" font-size="10pt" font-family="noto_regular"  y="14">stage</text><text text-decoration="none" x="153.1453125" fill="#4b4b4b" font-size="10pt" font-family="noto_regular"  y="14"></text></g></g><g id="YxlI1Lazop3"><g transform="translate(364.7813011324073 1154.0478309294422)"><rect x="0" y="0" width="120" height="80" fill="rgb(67,102,134)" stroke="#38566e" stroke-width="2" stroke-linecap="round" stroke-linejoin="round" stroke-dasharray="0 0"/></g><g transform="translate(394.8163011324073, 1167.042830929442) rotate(0, 29.965, 27.005)" width="59.93" height="54.01"><text text-decoration="none" x="3.0040625" fill="#ffffff" font-weight="bold" font-size="10pt" font-family="noto_regular"  y="14">Cohort&#160;</text><text text-decoration="none" x="49.5821875" fill="#ffffff" font-weight="bold" font-size="10pt" font-family="noto_regular"  y="14">1</text><text text-decoration="none" x="56.9259375" fill="#ffffff" font-weight="bold" font-size="10pt" font-family="noto_regular"  y="14"></text><text text-decoration="none" x="1.1837499999999999" fill="#ffffff" font-size="10pt" font-family="noto_regular"  y="32">progr:&#160;</text><text text-decoration="none" x="44.05875" fill="#ffffff" font-size="10pt" font-family="noto_regular"  y="32">31</text><text text-decoration="none" x="58.74625" fill="#ffffff" font-size="10pt" font-family="noto_regular"  y="32"></text><text text-decoration="none" x="0.004062499999999858" fill="#ffffff" font-size="10pt" font-family="noto_regular"  y="50">stable:&#160;</text><text text-decoration="none" x="45.2384375" fill="#ffffff" font-size="10pt" font-family="noto_regular"  y="50">31</text><text text-decoration="none" x="59.9259375" fill="#4b4b4b" font-size="10pt" font-family="noto_regular"  y="50"></text></g></g><g id="USm48xEvSIP"><mask id="c7942" x="411" y="1110" width="91" height="58" maskUnits="userSpaceOnUse"><rect x="411" y="1110" width="91" height="58" fill="white" /><rect x="442.8353332128597" y="1127.0005787706302" width="27.46" height="24" fill="black" /></mask><g mask="url(#c7942)"><path d="M 488,1124 L 488.08814836294266,1129.0444264973985 Q 488.26286576204006,1139.0429000724225 478.2628751772036,1139.0291777117286 L 457,1139 L 434.78129226759626,1139.029584812682 Q 424.7813011324073,1139.0429000724225 424.92750293221997,1149.041831266992 L 425,1154" fill="none" stroke="#1a1a1a" stroke-width="2" stroke-linecap="round" stroke-linejoin="round" stroke-dasharray="0 0"/><path d="M 425,1154 L 430.75,1145.304347826087 L 419.25,1145.304347826087 Z" fill="rgb(26,26,26)" stroke="#1a1a1a" stroke-width="2" stroke-linecap="round" stroke-linejoin="round"/></g><g transform="translate(445.8353332128597, 1130.0005787706302)" width="21.46" height="18"><text text-decoration="none" x="0.0034375000000004263" fill="#4b4b4b" font-size="10pt" font-family="noto_regular"  y="14">Yes</text><text text-decoration="none" x="21.4565625" fill="#4b4b4b" font-size="10pt" font-family="noto_regular"  y="14"></text></g></g><g id="A771ngouPrR"><g transform="translate(495.30303536260124 1154.0478310929325)"><rect x="0" y="0" width="120" height="80" fill="rgb(67,102,134)" stroke="#38566e" stroke-width="2" stroke-linecap="round" stroke-linejoin="round" stroke-dasharray="0 0"/></g><g transform="translate(525.3380353626012, 1167.0428310929324) rotate(0, 29.965, 27.005)" width="59.93" height="54.01"><text text-decoration="none" x="4.7384375" fill="#ffffff" font-weight="bold" font-size="10pt" font-family="noto_regular"  y="14">Cohort&#160;</text><text text-decoration="none" x="51.3165625" fill="#ffffff" font-weight="bold" font-size="10pt" font-family="noto_regular"  y="14">2</text><text text-decoration="none" x="58.6603125" fill="#ffffff" font-weight="bold" font-size="10pt" font-family="noto_regular"  y="14"></text><text text-decoration="none" x="1.1837499999999999" fill="#ffffff" font-size="10pt" font-family="noto_regular"  y="32">progr:&#160;</text><text text-decoration="none" x="44.05875" fill="#ffffff" font-size="10pt" font-family="noto_regular"  y="32">59</text><text text-decoration="none" x="58.74625" fill="#ffffff" font-size="10pt" font-family="noto_regular"  y="32"></text><text text-decoration="none" x="0.004062499999999858" fill="#ffffff" font-size="10pt" font-family="noto_regular"  y="50">stable:&#160;</text><text text-decoration="none" x="45.2384375" fill="#ffffff" font-size="10pt" font-family="noto_regular"  y="50">81</text><text text-decoration="none" x="59.9259375" fill="#4b4b4b" font-size="10pt" font-family="noto_regular"  y="50"></text></g></g><g id="u8JjhhXAKlL"><mask id="995c8" x="474" y="1110" width="95" height="58" maskUnits="userSpaceOnUse"><rect x="474" y="1110" width="95" height="58" fill="white" /><rect x="509.63543726711134" y="1127.0003300600808" width="24.21" height="24" fill="black" /></mask><g mask="url(#995c8)"><path d="M 488,1124 L 488.0881483638918,1129.044426579127 Q 488.26286576204006,1139.0429001541677 498.2628576772117,1139.0301841602184 L 522,1139 L 545.3030436595715,1139.0300184098742 Q 555.3030353626012,1139.0429001541677 555.1004739102405,1149.040848386581 L 555,1154" fill="none" stroke="#1a1a1a" stroke-width="2" stroke-linecap="round" stroke-linejoin="round" stroke-dasharray="0 0"/><path d="M 555,1154 L 560.75,1145.304347826087 L 549.25,1145.304347826087 Z" fill="rgb(26,26,26)" stroke="#1a1a1a" stroke-width="2" stroke-linecap="round" stroke-linejoin="round"/></g><g transform="translate(512.6354372671113, 1130.0003300600808)" width="18.21" height="18"><text text-decoration="none" x="0.0034375000000004263" fill="#4b4b4b" font-size="10pt" font-family="noto_regular"  y="14">No</text><text text-decoration="none" x="18.2065625" fill="#4b4b4b" font-size="10pt" font-family="noto_regular"  y="14"></text></g></g><g id="sWj7XYbOvP8"><g transform="translate(649.9615388907789 250)"><rect x="0" y="0" width="100.039621788115" height="40" fill="rgba(255,255,255,0.01)" stroke="rgba(255,255,255,0.01)"  stroke-dasharray="0 0"/></g><g transform="translate(659.9615388907789, 260) rotate(0, 0, 0)" width="89.08" height="18"><text text-decoration="none" x="0" fill="#4b4b4b" font-size="10pt" font-family="noto_regular"  y="14">Subjects:</text><text text-decoration="none" x="59.703125" fill="rgb(75, 75, 75)" font-size="10pt" font-family="noto_regular"  y="14">1831</text><text text-decoration="none" x="89.078125" fill="#4b4b4b" font-size="10pt" font-family="noto_regular"  y="14"></text></g></g><g id="MK2tDDKm825"><g transform="translate(650 340.00000000000006)"><rect x="0" y="0" width="100.039621788115" height="40" fill="rgba(255,255,255,0.01)" stroke="rgba(255,255,255,0.01)"  stroke-dasharray="0 0"/></g><g transform="translate(660, 350.00000000000006) rotate(0, 0, 0)" width="89.08" height="18"><text text-decoration="none" x="0" fill="#4b4b4b" font-size="10pt" font-family="noto_regular"  y="14">Subjects:</text><text text-decoration="none" x="59.703125" fill="rgb(26, 26, 26)" font-size="10pt" font-family="noto_regular"  y="14">1293</text><text text-decoration="none" x="89.078125" fill="#4b4b4b" font-size="10pt" font-family="noto_regular"  y="14"></text></g></g><g id="rszV4i8OaXb"><g transform="translate(650.0000024300042 439.9999885108197)"><rect x="0" y="0" width="100.039621788115" height="40" fill="rgba(255,255,255,0.01)" stroke="rgba(255,255,255,0.01)"  stroke-dasharray="0 0"/></g><g transform="translate(660.0000024300042, 449.9999885108197) rotate(0, 0, 0)" width="89.08" height="18"><text text-decoration="none" x="0" fill="#4b4b4b" font-size="10pt" font-family="noto_regular"  y="14">Subjects:</text><text text-decoration="none" x="59.703125" fill="rgb(26, 26, 26)" font-size="10pt" font-family="noto_regular"  y="14">1288</text><text text-decoration="none" x="89.078125" fill="#4b4b4b" font-size="10pt" font-family="noto_regular"  y="14"></text></g></g><g id="lpd04sL0BoJ"><g transform="translate(660.0000000500767 532.5095459244089)"><rect x="0" y="0" width="100.039621788115" height="40" fill="rgba(255,255,255,0.01)" stroke="rgba(255,255,255,0.01)"  stroke-dasharray="0 0"/></g><g transform="translate(670.0000000500767, 542.5095459244089) rotate(0, 0, 0)" width="81.74" height="18"><text text-decoration="none" x="0" fill="#4b4b4b" font-size="10pt" font-family="noto_regular"  y="14">Subjects:</text><text text-decoration="none" x="59.703125" fill="rgb(26, 26, 26)" font-size="10pt" font-family="noto_regular"  y="14">582</text><text text-decoration="none" x="81.734375" fill="#4b4b4b" font-size="10pt" font-family="noto_regular"  y="14"></text></g></g><g id="gjalCxLULFq"><g transform="translate(660.0000052300462 630)"><rect x="0" y="0" width="100.039621788115" height="40" fill="rgba(255,255,255,0.01)" stroke="rgba(255,255,255,0.01)"  stroke-dasharray="0 0"/></g><g transform="translate(670.0000052300462, 640) rotate(0, 0, 0)" width="81.74" height="18"><text text-decoration="none" x="0" fill="#4b4b4b" font-size="10pt" font-family="noto_regular"  y="14">Subjects:</text><text text-decoration="none" x="59.703125" fill="rgb(26, 26, 26)" font-size="10pt" font-family="noto_regular"  y="14">577</text><text text-decoration="none" x="81.734375" fill="#4b4b4b" font-size="10pt" font-family="noto_regular"  y="14"></text></g></g><g id="KWbPPulIE2i"><g transform="translate(669.9999976701491 680.0000033493831)"><rect x="0" y="0" width="169.9999689869362" height="50.00946956703206" fill="rgb(255,255,255)" stroke="#24afaf" stroke-width="2" stroke-linecap="round" stroke-linejoin="round" stroke-dasharray="0 0"/></g><g transform="translate(684.9599821636173, 696.0047381328991) rotate(0, 70.04, 9)" width="140.08" height="18"><text text-decoration="none" x="0.0009375000000062528" fill="#4b4b4b" font-size="10pt" font-family="noto_regular"  y="14">Create&#160;</text><text text-decoration="none" x="44.735312500000006" fill="#4b4b4b" font-size="10pt" font-family="noto_regular"  y="14">visit&#160;</text><text text-decoration="none" x="73.0478125" fill="#4b4b4b" font-size="10pt" font-family="noto_regular"  y="14">pairs&#160;</text><text text-decoration="none" x="107.5321875" fill="#4b4b4b" font-size="10pt" font-family="noto_regular"  y="14">(3&#160;</text><text text-decoration="none" x="123.0634375" fill="#4b4b4b" font-size="10pt" font-family="noto_regular"  y="14">yr)</text><text text-decoration="none" x="140.07906250000002" fill="#4b4b4b" font-size="10pt" font-family="noto_regular"  y="14"></text></g></g><g id="o7GeONem5Aj"><mask id="f3830" x="474" y="936" width="296" height="122" maskUnits="userSpaceOnUse"><rect x="474" y="936" width="296" height="122" fill="white" />undefinedundefinedundefined<rect x="573.2114769205922" y="988" width="49.71" height="24" fill="black" /></mask><g mask="url(#f3830)"><path d="M 756,950 L 756.0001431190265,990.000000000064 Q 756.0001788987831,1000 746.0001788987831,1000 L 622,1000 L 498.26286576204006,1000 Q 488.26286576204006,1000 488.2031246095056,1009.9998215481424 L 488,1044" fill="none" stroke="#1a1a1a" stroke-width="2" stroke-linecap="round" stroke-linejoin="round" stroke-dasharray="0 0"/><path d="M 488,1044 L 493.75,1035.304347826087 L 482.25,1035.304347826087 Z" fill="rgb(26,26,26)" stroke="#1a1a1a" stroke-width="2" stroke-linecap="round" stroke-linejoin="round"/></g>undefinedundefinedundefined<g transform="translate(576.2114769205922, 991)" width="43.71" height="18"><rect x="-2.5" y="0" width="48.703125" height="20.5" fill="#1a1a1a" rx="5"/><text text-decoration="none" x="0.0034375000000004263" fill="#FFFFFF" font-size="10pt" font-family="noto_regular"  y="14">Off-Off</text><text text-decoration="none" x="43.706562500000004" fill="#4b4b4b" font-size="10pt" font-family="noto_regular"  y="14"></text></g></g><g id="tpJTY8gQQNO"><g transform="translate(660.0000000500767 730.0094653130715)"><rect x="0" y="0" width="100.039621788115" height="40" fill="rgba(255,255,255,0.01)" stroke="rgba(255,255,255,0.01)"  stroke-dasharray="0 0"/></g><g transform="translate(670.0000000500767, 740.0094653130715) rotate(0, 0, 0)" width="81.74" height="18"><text text-decoration="none" x="0" fill="#4b4b4b" font-size="10pt" font-family="noto_regular"  y="14">Subjects:</text><text text-decoration="none" x="59.703125" fill="rgb(75, 75, 75)" font-size="10pt" font-family="noto_regular"  y="14">216</text><text text-decoration="none" x="81.734375" fill="#4b4b4b" font-size="10pt" font-family="noto_regular"  y="14"></text></g></g><g id="wW8S3imidzi"><g transform="translate(660.0000052300462 819.9972477834888)"><rect x="0" y="0" width="100.039621788115" height="40" fill="rgba(255,255,255,0.01)" stroke="rgba(255,255,255,0.01)"  stroke-dasharray="0 0"/></g><g transform="translate(670.0000052300462, 829.9972477834888) rotate(0, 0, 0)" width="81.74" height="18"><text text-decoration="none" x="0" fill="#4b4b4b" font-size="10pt" font-family="noto_regular"  y="14">Subjects:</text><text text-decoration="none" x="59.703125" fill="rgb(75, 75, 75)" font-size="10pt" font-family="noto_regular"  y="14">213</text><text text-decoration="none" x="81.734375" fill="#4b4b4b" font-size="10pt" font-family="noto_regular"  y="14"></text></g></g><g id="P9LLGGQdyfc"><g transform="translate(670.9999976770702 870)"><path d="M 85.00018122171299,0 L 0,40 L 85.00018122171299,80 L 170.00036244342598,40 L 85.00018122171299,0 Z" fill="rgb(255,255,255)" stroke="#4b4b4b" stroke-width="2" stroke-linecap="round" stroke-linejoin="round" stroke-dasharray="0 0"/></g><g transform="translate(695.6751788987831, 901) rotate(0, 60.325, 9)" width="120.65" height="18"><text text-decoration="none" x="0.004687500000002842" fill="#4b4b4b" font-size="10pt" font-family="noto_regular"  y="14">Sample&#160;</text><text text-decoration="none" x="49.8953125" fill="#4b4b4b" font-size="10pt" font-family="noto_regular"  y="14">by&#160;</text><text text-decoration="none" x="68.3640625" fill="#4b4b4b" font-size="10pt" font-family="noto_regular"  y="14">PD&#160;</text><text text-decoration="none" x="89.6296875" fill="#4b4b4b" font-size="10pt" font-family="noto_regular"  y="14">state</text><text text-decoration="none" x="120.6453125" fill="#4b4b4b" font-size="10pt" font-family="noto_regular"  y="14"></text></g></g><g id="dQc9AwqdhCt"><g><path d="M 755,820 L 754.7294849483573,835.0002507451266 Q 754.7213560187486,835.451005635395 755,845 Q 756.00011450005,853.9984451653731 756.0001073432054,854.9986250092605 L 756,870" fill="none" stroke="#1a1a1a" stroke-width="2" stroke-linecap="round" stroke-linejoin="round" stroke-dasharray="0 0"/><path d="M 756,870 L 761.75,861.304347826087 L 750.25,861.304347826087 Z" fill="rgb(26,26,26)" stroke="#1a1a1a" stroke-width="2" stroke-linecap="round" stroke-linejoin="round"/></g></g><g id="qYJ6se9U6hH"><g transform="translate(624.7813160402992 1045.0000741108233)"><path d="M 130.2608609039716,0 L 0,39.995069142980356 L 130.2608609039716,79.99013828596071 L 260.5217218079432,39.995069142980356 L 130.2608609039716,0 Z" fill="rgb(255,255,255)" stroke="#4b4b4b" stroke-width="2" stroke-linecap="round" stroke-linejoin="round" stroke-dasharray="0 0"/></g><g transform="translate(678.4671769442707, 1075.9951432538037) rotate(0, 76.575, 9)" width="153.15" height="18"><text text-decoration="none" x="0.004687500000002842" fill="#4b4b4b" font-size="10pt" font-family="noto_regular"  y="14">Match&#160;</text><text text-decoration="none" x="42.5046875" fill="#4b4b4b" font-size="10pt" font-family="noto_regular"  y="14">by&#160;</text><text text-decoration="none" x="60.9734375" fill="#4b4b4b" font-size="10pt" font-family="noto_regular"  y="14">age,&#160;</text><text text-decoration="none" x="90.9734375" fill="#4b4b4b" font-size="10pt" font-family="noto_regular"  y="14">sex,&#160;</text><text text-decoration="none" x="118.7390625" fill="#4b4b4b" font-size="10pt" font-family="noto_regular"  y="14">stage</text><text text-decoration="none" x="153.1453125" fill="#4b4b4b" font-size="10pt" font-family="noto_regular"  y="14"></text></g></g><g id="GBTneJakGiQ"><g transform="translate(634.7813011324071 1155.0000644799843)"><rect x="0" y="0" width="120" height="80" fill="rgb(67,102,134)" stroke="#38566e" stroke-width="2" stroke-linecap="round" stroke-linejoin="round" stroke-dasharray="0 0"/></g><g transform="translate(664.816301132407, 1167.9950644799842) rotate(0, 29.965, 27.005)" width="59.93" height="54.01"><text text-decoration="none" x="3.0040625" fill="#ffffff" font-weight="bold" font-size="10pt" font-family="noto_regular"  y="14">Cohort&#160;</text><text text-decoration="none" x="49.5821875" fill="#ffffff" font-weight="bold" font-size="10pt" font-family="noto_regular"  y="14">3</text><text text-decoration="none" x="56.9259375" fill="#ffffff" font-weight="bold" font-size="10pt" font-family="noto_regular"  y="14"></text><text text-decoration="none" x="1.1837499999999999" fill="#ffffff" font-size="10pt" font-family="noto_regular"  y="32">progr:&#160;</text><text text-decoration="none" x="44.05875" fill="#ffffff" font-size="10pt" font-family="noto_regular"  y="32">51</text><text text-decoration="none" x="58.74625" fill="#ffffff" font-size="10pt" font-family="noto_regular"  y="32"></text><text text-decoration="none" x="0.004062499999999858" fill="#ffffff" font-size="10pt" font-family="noto_regular"  y="50">stable:&#160;</text><text text-decoration="none" x="45.2384375" fill="#ffffff" font-size="10pt" font-family="noto_regular"  y="50">51</text><text text-decoration="none" x="59.9259375" fill="#4b4b4b" font-size="10pt" font-family="noto_regular"  y="50"></text></g></g><g id="VdWYbUD5Adq"><mask id="3e929" x="681" y="1111" width="88" height="58" maskUnits="userSpaceOnUse"><rect x="681" y="1111" width="88" height="58" fill="white" /><rect x="711.1761102842345" y="1127.999984895093" width="27.46" height="24" fill="black" /></mask><g mask="url(#3e929)"><path d="M 755,1125 L 755.0140499765823,1129.995177994778 Q 755.0421769442708,1139.9951384383842 745.0421770752066,1139.9967566838134 L 725,1140 L 704.7813010029964,1139.9967472308654 Q 694.7813011324071,1139.9951384383842 694.9270376595902,1149.9940764252228 L 695,1155" fill="none" stroke="#1a1a1a" stroke-width="2" stroke-linecap="round" stroke-linejoin="round" stroke-dasharray="0 0"/><path d="M 695,1155 L 700.75,1146.304347826087 L 689.25,1146.304347826087 Z" fill="rgb(26,26,26)" stroke="#1a1a1a" stroke-width="2" stroke-linecap="round" stroke-linejoin="round"/></g><g transform="translate(714.1761102842345, 1130.999984895093)" width="21.46" height="18"><text text-decoration="none" x="0.0034375000000004263" fill="#4b4b4b" font-size="10pt" font-family="noto_regular"  y="14">Yes</text><text text-decoration="none" x="21.4565625" fill="#4b4b4b" font-size="10pt" font-family="noto_regular"  y="14"></text></g></g><g id="eSircAtJLia"><g transform="translate(765.3030379034363 1154.0478306027785)"><rect x="0" y="0" width="120" height="80" fill="rgb(67,102,134)" stroke="#38566e" stroke-width="2" stroke-linecap="round" stroke-linejoin="round" stroke-dasharray="0 0"/></g><g transform="translate(791.6680379034364, 1167.0428306027784) rotate(0, 33.635, 27.005)" width="67.27" height="54.01"><text text-decoration="none" x="6.674062499999998" fill="#ffffff" font-weight="bold" font-size="10pt" font-family="noto_regular"  y="14">Cohort&#160;</text><text text-decoration="none" x="53.2521875" fill="#ffffff" font-weight="bold" font-size="10pt" font-family="noto_regular"  y="14">4</text><text text-decoration="none" x="60.5959375" fill="#ffffff" font-weight="bold" font-size="10pt" font-family="noto_regular"  y="14"></text><text text-decoration="none" x="3.119374999999998" fill="#ffffff" font-size="10pt" font-family="noto_regular"  y="32">progr:&#160;&#160;</text><text text-decoration="none" x="49.463125" fill="#ffffff" font-size="10pt" font-family="noto_regular"  y="32">89</text><text text-decoration="none" x="64.15062499999999" fill="#ffffff" font-size="10pt" font-family="noto_regular"  y="32"></text><text text-decoration="none" x="0.0021874999999980105" fill="#ffffff" font-size="10pt" font-family="noto_regular"  y="50">stable:&#160;</text><text text-decoration="none" x="45.2365625" fill="#ffffff" font-size="10pt" font-family="noto_regular"  y="50">105</text><text text-decoration="none" x="67.26781249999999" fill="#4b4b4b" font-size="10pt" font-family="noto_regular"  y="50"></text></g></g><g id="gAv7MiMq2sK"><mask id="f2024" x="741" y="1111" width="98" height="57" maskUnits="userSpaceOnUse"><rect x="741" y="1111" width="98" height="57" fill="white" /><rect x="778.0501099389184" y="1127.9978867386428" width="24.21" height="24" fill="black" /></mask><g mask="url(#f2024)"><path d="M 755,1125 L 755.013127626923,1129.5190636930122 Q 755.0421769442708,1139.5190214997813 765.0412305525832,1139.6565967086399 L 790,1140 L 815.3039658793812,1139.6552516644165 Q 825.3030379034363,1139.5190214997813 825.0938175309784,1149.516832602005 L 825,1154" fill="none" stroke="#1a1a1a" stroke-width="2" stroke-linecap="round" stroke-linejoin="round" stroke-dasharray="0 0"/><path d="M 825,1154 L 830.75,1145.304347826087 L 819.25,1145.304347826087 Z" fill="rgb(26,26,26)" stroke="#1a1a1a" stroke-width="2" stroke-linecap="round" stroke-linejoin="round"/></g><g transform="translate(781.0501099389184, 1130.9978867386428)" width="18.21" height="18"><text text-decoration="none" x="0.0034375000000004263" fill="#4b4b4b" font-size="10pt" font-family="noto_regular"  y="14">No</text><text text-decoration="none" x="18.2065625" fill="#4b4b4b" font-size="10pt" font-family="noto_regular"  y="14"></text></g></g><g id="u7AipOL4XIZ"><mask id="5b96b" x="741" y="936" width="29" height="123" maskUnits="userSpaceOnUse"><rect x="741" y="936" width="29" height="123" fill="white" />undefined<rect x="694.8001637822423" y="1002.0851589939003" width="122.4" height="24" fill="black" /></mask><g mask="url(#5b96b)"><path d="M 756,950 L 756.0001533418141,1010.0000000000326 Q 756.0001533422713,1010.0001788988158 756,1020 Q 755.0269221102575,1029.0421640762343 755.0253061905714,1029.9999857688733 L 755,1045" fill="none" stroke="#1a1a1a" stroke-width="2" stroke-linecap="round" stroke-linejoin="round" stroke-dasharray="0 0"/><path d="M 755,1045 L 760.75,1036.304347826087 L 749.25,1036.304347826087 Z" fill="rgb(26,26,26)" stroke="#1a1a1a" stroke-width="2" stroke-linecap="round" stroke-linejoin="round"/></g>undefined<g transform="translate(697.8001637822423, 1005.0851589939003)" width="116.4" height="18"><rect x="-2.5" y="0" width="121.390625" height="20.5" fill="#1a1a1a" rx="5"/><text text-decoration="none" x="0.004687500000002842" fill="#FFFFFF" font-size="10pt" font-family="noto_regular"  y="14">On-On&#160;</text><text text-decoration="none" x="45.3015625" fill="#FFFFFF" font-size="10pt" font-family="noto_regular"  y="14">and&#160;</text><text text-decoration="none" x="72.6921875" fill="#FFFFFF" font-size="10pt" font-family="noto_regular"  y="14">Off-Off</text><text text-decoration="none" x="116.3953125" fill="#4b4b4b" font-size="10pt" font-family="noto_regular"  y="14"></text></g></g><g id="fdBbnWO2kav"><g transform="translate(904.7813011324068 1045.0000743213668)"><path d="M 123.48156462963254,0 L 0,39.995069142980356 L 123.48156462963254,79.99013828596071 L 246.9631292592651,39.995069142980356 L 123.48156462963254,0 Z" fill="rgb(255,255,255)" stroke="#4b4b4b" stroke-width="2" stroke-linecap="round" stroke-linejoin="round" stroke-dasharray="0 0"/></g><g transform="translate(951.6878657620393, 1075.9951434643472) rotate(0, 76.575, 9)" width="153.15" height="18"><text text-decoration="none" x="0.004687500000002842" fill="#4b4b4b" font-size="10pt" font-family="noto_regular"  y="14">Match&#160;</text><text text-decoration="none" x="42.5046875" fill="#4b4b4b" font-size="10pt" font-family="noto_regular"  y="14">by&#160;</text><text text-decoration="none" x="60.9734375" fill="#4b4b4b" font-size="10pt" font-family="noto_regular"  y="14">age,&#160;</text><text text-decoration="none" x="90.9734375" fill="#4b4b4b" font-size="10pt" font-family="noto_regular"  y="14">sex,&#160;</text><text text-decoration="none" x="118.7390625" fill="#4b4b4b" font-size="10pt" font-family="noto_regular"  y="14">stage</text><text text-decoration="none" x="153.1453125" fill="#4b4b4b" font-size="10pt" font-family="noto_regular"  y="14"></text></g></g><g id="sTvM6qmSHSN"><g transform="translate(904.7813011324068 1155.0000694563628)"><rect x="0" y="0" width="120" height="80" fill="rgb(67,102,134)" stroke="#38566e" stroke-width="2" stroke-linecap="round" stroke-linejoin="round" stroke-dasharray="0 0"/></g><g transform="translate(934.8163011324069, 1167.9950694563627) rotate(0, 29.965, 27.005)" width="59.93" height="54.01"><text text-decoration="none" x="3.0040625" fill="#ffffff" font-weight="bold" font-size="10pt" font-family="noto_regular"  y="14">Cohort&#160;</text><text text-decoration="none" x="49.5821875" fill="#ffffff" font-weight="bold" font-size="10pt" font-family="noto_regular"  y="14">5</text><text text-decoration="none" x="56.9259375" fill="#ffffff" font-weight="bold" font-size="10pt" font-family="noto_regular"  y="14"></text><text text-decoration="none" x="1.1837499999999999" fill="#ffffff" font-size="10pt" font-family="noto_regular"  y="32">progr:&#160;</text><text text-decoration="none" x="44.05875" fill="#ffffff" font-size="10pt" font-family="noto_regular"  y="32">37</text><text text-decoration="none" x="58.74625" fill="#ffffff" font-size="10pt" font-family="noto_regular"  y="32"></text><text text-decoration="none" x="0.004062499999999858" fill="#ffffff" font-size="10pt" font-family="noto_regular"  y="50">stable:&#160;</text><text text-decoration="none" x="45.2384375" fill="#ffffff" font-size="10pt" font-family="noto_regular"  y="50">37</text><text text-decoration="none" x="59.9259375" fill="#4b4b4b" font-size="10pt" font-family="noto_regular"  y="50"></text></g></g><g id="X4CW3T30r3I"><mask id="7bfb2" x="951" y="1111" width="91" height="58" maskUnits="userSpaceOnUse"><rect x="951" y="1111" width="91" height="58" fill="white" /><rect x="982.7875795621978" y="1127.9999272451828" width="27.46" height="24" fill="black" /></mask><g mask="url(#7bfb2)"><path d="M 1028,1125 L 1028.087592064342,1129.99667719329 Q 1028.2628657620394,1139.9951410318452 1018.262865882821,1139.9966952617526 L 997,1140 L 974.7813010186856,1139.9966491523685 Q 964.781301132407,1139.9951410318452 964.9270376847741,1149.9940790183168 L 965,1155" fill="none" stroke="#1a1a1a" stroke-width="2" stroke-linecap="round" stroke-linejoin="round" stroke-dasharray="0 0"/><path d="M 965,1155 L 970.75,1146.304347826087 L 959.25,1146.304347826087 Z" fill="rgb(26,26,26)" stroke="#1a1a1a" stroke-width="2" stroke-linecap="round" stroke-linejoin="round"/></g><g transform="translate(985.7875795621978, 1130.9999272451828)" width="21.46" height="18"><text text-decoration="none" x="0.0034375000000004263" fill="#4b4b4b" font-size="10pt" font-family="noto_regular"  y="14">Yes</text><text text-decoration="none" x="21.4565625" fill="#4b4b4b" font-size="10pt" font-family="noto_regular"  y="14"></text></g></g><g id="xy2BrENKQlA"><g transform="translate(1035.3030353626013 1155.0000696198535)"><rect x="0" y="0" width="120" height="80" fill="rgb(67,102,134)" stroke="#38566e" stroke-width="2" stroke-linecap="round" stroke-linejoin="round" stroke-dasharray="0 0"/></g><g transform="translate(1065.3380353626014, 1167.9950696198534) rotate(0, 29.965, 27.005)" width="59.93" height="54.01"><text text-decoration="none" x="3.0040625" fill="#ffffff" font-weight="bold" font-size="10pt" font-family="noto_regular"  y="14">Cohort&#160;</text><text text-decoration="none" x="49.5821875" fill="#ffffff" font-weight="bold" font-size="10pt" font-family="noto_regular"  y="14">6</text><text text-decoration="none" x="56.9259375" fill="#ffffff" font-weight="bold" font-size="10pt" font-family="noto_regular"  y="14"></text><text text-decoration="none" x="1.1837499999999999" fill="#ffffff" font-size="10pt" font-family="noto_regular"  y="32">progr:&#160;</text><text text-decoration="none" x="44.05875" fill="#ffffff" font-size="10pt" font-family="noto_regular"  y="32">57</text><text text-decoration="none" x="58.74625" fill="#ffffff" font-size="10pt" font-family="noto_regular"  y="32"></text><text text-decoration="none" x="0.004062499999999858" fill="#ffffff" font-size="10pt" font-family="noto_regular"  y="50">stable:&#160;</text><text text-decoration="none" x="45.2384375" fill="#ffffff" font-size="10pt" font-family="noto_regular"  y="50">90</text><text text-decoration="none" x="59.9259375" fill="#4b4b4b" font-size="10pt" font-family="noto_regular"  y="50"></text></g></g><g id="OkMH5G6trj5"><mask id="19613" x="1014" y="1111" width="95" height="58" maskUnits="userSpaceOnUse"><rect x="1014" y="1111" width="95" height="58" fill="white" /><rect x="1049.6831873839762" y="1127.999969494343" width="24.21" height="24" fill="black" /></mask><g mask="url(#19613)"><path d="M 1028,1125 L 1028.0875920652973,1129.9966772750186 Q 1028.2628657620394,1139.9951411135905 1038.2628656583279,1139.9965813326455 L 1062,1140 L 1085.3030354690343,1139.9966001056328 Q 1095.3030353626013,1139.9951411135905 1095.1011183808223,1149.9931023823929 L 1095,1155" fill="none" stroke="#1a1a1a" stroke-width="2" stroke-linecap="round" stroke-linejoin="round" stroke-dasharray="0 0"/><path d="M 1095,1155 L 1100.75,1146.304347826087 L 1089.25,1146.304347826087 Z" fill="rgb(26,26,26)" stroke="#1a1a1a" stroke-width="2" stroke-linecap="round" stroke-linejoin="round"/></g><g transform="translate(1052.6831873839762, 1130.999969494343)" width="18.21" height="18"><text text-decoration="none" x="0.0034375000000004263" fill="#4b4b4b" font-size="10pt" font-family="noto_regular"  y="14">No</text><text text-decoration="none" x="18.2065625" fill="#4b4b4b" font-size="10pt" font-family="noto_regular"  y="14"></text></g></g><g id="8DAcTgwMwle"><mask id="d8102" x="742" y="936" width="300" height="123" maskUnits="userSpaceOnUse"><rect x="742" y="936" width="300" height="123" fill="white" />undefinedundefined<rect x="849.8347777363408" y="988" width="47.83" height="24" fill="black" /></mask><g mask="url(#d8102)"><path d="M 756,950 L 756.0001431190265,990.000000000064 Q 756.0001788987831,1000 766.0001788987831,1000 L 892,1000 L 1018.2628657620394,1000 Q 1028.2628657620394,1000 1028.2044521448586,1009.9998293910111 L 1028,1045" fill="none" stroke="#1a1a1a" stroke-width="2" stroke-linecap="round" stroke-linejoin="round" stroke-dasharray="0 0"/><path d="M 1028,1045 L 1033.75,1036.304347826087 L 1022.25,1036.304347826087 Z" fill="rgb(26,26,26)" stroke="#1a1a1a" stroke-width="2" stroke-linecap="round" stroke-linejoin="round"/></g>undefinedundefined<g transform="translate(852.8347777363408, 991)" width="41.83" height="18"><rect x="-2.5" y="0" width="46.828125" height="20.5" fill="#1a1a1a" rx="5"/><text text-decoration="none" x="0.0009374999999991473" fill="#FFFFFF" font-size="10pt" font-family="noto_regular"  y="14">On-On</text><text text-decoration="none" x="41.8290625" fill="#4b4b4b" font-size="10pt" font-family="noto_regular"  y="14"></text></g></g><g id="lgy9S4LfyaO"><g transform="translate(1069.9999999999995 879.999999533205)"><rect x="0" y="0" width="120" height="60" fill="rgb(67,102,134)" stroke="#38566e" stroke-width="2" stroke-linecap="round" stroke-linejoin="round" stroke-dasharray="0 0"/></g><g transform="translate(1093.0299999999995, 891.994999533205) rotate(0, 36.97, 18.005)" width="73.94" height="36.01"><text text-decoration="none" x="8.274687499999999" fill="#ffffff" font-weight="bold" font-size="10pt" font-family="noto_regular"  y="14">Cohort&#160;</text><text text-decoration="none" x="54.8528125" fill="#ffffff" font-weight="bold" font-size="10pt" font-family="noto_regular"  y="14">7&#160;</text><text text-decoration="none" x="65.6653125" fill="#ffffff" font-size="10pt" font-family="noto_regular"  y="14"></text><text text-decoration="none" x="0.0012499999999988631" fill="#ffffff" font-size="10pt" font-family="noto_regular"  y="32">2&#xD7;61&#160;</text><text text-decoration="none" x="32.845" fill="#ffffff" font-size="10pt" font-family="noto_regular"  y="32">cohort</text><text text-decoration="none" x="73.93875" fill="#4b4b4b" font-size="10pt" font-family="noto_regular"  y="32"></text></g></g><g id="XJqbC5HA7e1"><g><path d="M 755,633 L 755.0001022232129,646.3120486265271 Q 755.0001046194345,646.6240973040976 755,656 Q 754.999989458381,665.9999999994875 754.9999896933451,666.3120486262295 L 755,680" fill="none" stroke="#1a1a1a" stroke-width="2" stroke-linecap="round" stroke-linejoin="round" stroke-dasharray="0 0"/><path d="M 755,680 L 760.75,671.304347826087 L 749.25,671.304347826087 Z" fill="rgb(26,26,26)" stroke="#1a1a1a" stroke-width="2" stroke-linecap="round" stroke-linejoin="round"/></g></g><g id="NaBTPIcPUPs"><g><path d="M 755,730 L 754.9999892968189,745.0047364582101 Q 754.9999892934402,745.0094729500014 755,755 Q 754.7213787561218,764.552332635016 754.7295091894549,765.0031102854034 L 755,780" fill="none" stroke="#1a1a1a" stroke-width="2" stroke-linecap="round" stroke-linejoin="round" stroke-dasharray="0 0"/><path d="M 755,780 L 760.75,771.304347826087 L 749.25,771.304347826087 Z" fill="rgb(26,26,26)" stroke="#1a1a1a" stroke-width="2" stroke-linecap="round" stroke-linejoin="round"/></g></g><g id="6psVU9qib1k"><g transform="translate(910.1088817260008 870.3676819415654)"><rect x="0" y="0" width="114.67242673104357" height="79.63181911699465" fill="white" stroke="#1a1a1a" stroke-width="2" stroke-linecap="round" stroke-linejoin="round" stroke-dasharray="0 0"/></g><g transform="translate(923.6950950915226, 892.1785915000627) rotate(0, 43.75, 18.005)" width="87.5" height="36.01"><text text-decoration="none" x="0" fill="#4b4b4b" font-size="10pt" font-family="noto_regular"  y="14">Match&#160;</text><text text-decoration="none" x="42.5" fill="#4b4b4b" font-size="10pt" font-family="noto_regular"  y="14">by&#160;</text><text text-decoration="none" x="60.96875" fill="#4b4b4b" font-size="10pt" font-family="noto_regular"  y="14">age,&#160;</text><text text-decoration="none" x="12.6640625" fill="#4b4b4b" font-size="10pt" font-family="noto_regular"  y="32">sex,&#160;</text><text text-decoration="none" x="40.4296875" fill="#4b4b4b" font-size="10pt" font-family="noto_regular"  y="32">stage</text><text text-decoration="none" x="74.8359375" fill="#4b4b4b" font-size="10pt" font-family="noto_regular"  y="32"></text></g></g><g id="1bjwoZjioOq"><mask id="c7326" x="827" y="896" width="97" height="28" maskUnits="userSpaceOnUse"><rect x="827" y="896" width="97" height="28" fill="white" /><rect x="864.7032689092192" y="898.1270149560145" width="21.41" height="24" fill="black" /></mask><g mask="url(#c7326)"><path d="M 841,910 L 850,910 Q 850,910 860,910 Q 869.8163423265497,910.1475475598054 869.9999325890038,910.1468734475718 L 910,910" fill="none" stroke="#1a1a1a" stroke-width="2" stroke-linecap="round" stroke-linejoin="round" stroke-dasharray="0 0"/><path d="M 910,910 L 901.304347826087,904.25 L 901.304347826087,915.75 Z" fill="rgb(26,26,26)" stroke="#1a1a1a" stroke-width="2" stroke-linecap="round" stroke-linejoin="round"/></g><g transform="translate(867.7032689092192, 901.1270149560145)" width="15.41" height="18"><rect x="-2.5" y="0" width="20.40625" height="20.5" fill="#1a1a1a" rx="5"/><text text-decoration="none" x="0.001875000000000071" fill="#FFFFFF" font-size="10pt" font-family="noto_regular"  y="14">All</text><text text-decoration="none" x="15.408125" fill="#4b4b4b" font-size="10pt" font-family="noto_regular"  y="14"></text></g></g><g id="LuRcOynq0hN"><g><path d="M 1025,910 L 1037.390990368123,910.1015995551415 Q 1037.8226198848301,910.1051386884618 1047,910 Q 1056.9999999999998,909.9999997316006 1057.390654228522,909.9999997396661 L 1070,910" fill="none" stroke="#1a1a1a" stroke-width="2" stroke-linecap="round" stroke-linejoin="round" stroke-dasharray="0 0"/><path d="M 1070,910 L 1061.304347826087,904.25 L 1061.304347826087,915.75 Z" fill="rgb(26,26,26)" stroke="#1a1a1a" stroke-width="2" stroke-linecap="round" stroke-linejoin="round"/></g></g></svg>